<?xml version="1.0" encoding="UTF-8" standalone="no"?>
<!DOCTYPE svg PUBLIC "-//W3C//DTD SVG 1.1//EN" "http://www.w3.org/Graphics/SVG/1.1/DTD/svg11.dtd">
<svg width="100%" height="100%" viewBox="0 0 500 500" version="1.1" xmlns="http://www.w3.org/2000/svg" xmlns:xlink="http://www.w3.org/1999/xlink" xml:space="preserve" xmlns:serif="http://www.serif.com/" style="fill-rule:evenodd;clip-rule:evenodd;stroke-miterlimit:10;">
    <g id="Background-Complete" serif:id="Background Complete">
        <g transform="matrix(1,0,0,1,235.976,85.7715)">
            <path d="M0,22.605C-4.774,22.605 -123.927,21.775 -157.583,21.775C-159.937,21.775 -156.962,17.7 -155.664,17.416C-151.525,16.51 -147.215,16.463 -143.009,16.028C-138.788,15.588 -134.862,14.658 -130.948,13.005C-127.638,11.608 -124.333,9.991 -120.746,9.432C-113.812,8.345 -107.73,12.102 -101.227,13.761C-97,14.838 -93.163,14.403 -89.405,12.146C-86.398,10.343 -83.666,8.18 -80.522,6.586C-68.584,0.557 -54.041,0 -41.586,4.803C-38.609,5.955 -35.738,7.408 -33.069,9.163C-29.893,11.246 -27.154,13.911 -23.968,15.969C-16.91,20.537 -8.185,19.051 -0.487,21.669C-0.064,21.81 0.412,22.605 0,22.605" style="fill:rgb(236,236,236);fill-rule:nonzero;"/>
        </g>
        <g transform="matrix(1,0,0,1,329.698,32.6018)">
            <path d="M0,21.763C-6.313,21.763 -112.544,22.462 -119.22,22.25C-119.7,22.236 -119.957,21.53 -119.48,21.293C-115.272,19.21 -110.498,19.628 -106.125,18.154C-103.551,17.287 -101.971,15.604 -100.185,13.675C-98.643,12.006 -96.854,10.727 -94.657,10.066C-92.714,9.483 -90.613,9.408 -88.639,9.877C-86.483,10.391 -84.612,11.625 -82.555,12.403C-77.452,14.329 -72.493,12.499 -68.85,8.722C-65.844,5.61 -62.89,2.673 -58.805,0.997C-55.384,-0.408 -51.587,-0.699 -48.163,0.85C-44.266,2.615 -41.593,6.166 -37.933,8.301C-33.594,10.837 -28.405,10.237 -23.614,11.001C-18.809,11.769 -15.142,15.803 -10.94,18.127C-9.504,18.922 -8.034,19.587 -6.358,19.546C-5.418,19.522 -4.496,19.268 -3.568,19.151C-2.121,18.973 -0.747,19.014 0.226,20.221C0.463,20.516 0.414,21.763 0,21.763" style="fill:rgb(236,236,236);fill-rule:nonzero;"/>
        </g>
        <g transform="matrix(1,0,0,1,439.627,251.651)">
            <path d="M0,21.763C-6.313,21.763 -112.544,22.462 -119.22,22.25C-119.7,22.236 -119.957,21.53 -119.48,21.294C-115.272,19.21 -110.498,19.628 -106.125,18.154C-103.551,17.287 -101.971,15.604 -100.185,13.675C-98.643,12.006 -96.854,10.727 -94.657,10.066C-92.714,9.483 -90.613,9.408 -88.639,9.877C-86.483,10.391 -84.612,11.625 -82.555,12.403C-77.452,14.329 -72.493,12.499 -68.85,8.722C-65.844,5.61 -62.89,2.673 -58.805,0.997C-55.384,-0.408 -51.587,-0.699 -48.163,0.85C-44.266,2.615 -41.593,6.166 -37.933,8.301C-33.594,10.837 -28.405,10.237 -23.614,11.001C-18.809,11.769 -15.142,15.803 -10.94,18.127C-9.504,18.922 -8.033,19.587 -6.358,19.546C-5.418,19.522 -4.496,19.268 -3.568,19.151C-2.121,18.973 -0.747,19.014 0.226,20.221C0.463,20.516 0.414,21.763 0,21.763" style="fill:rgb(236,236,236);fill-rule:nonzero;"/>
        </g>
        <g transform="matrix(1,0,0,1,452.317,86.1327)">
            <path d="M0,15.89C-4.609,15.89 -82.168,16.4 -87.042,16.245C-87.392,16.235 -87.58,15.72 -87.232,15.547C-84.159,14.026 -80.674,14.331 -77.481,13.255C-75.602,12.622 -74.448,11.394 -73.145,9.985C-72.019,8.766 -70.713,7.833 -69.109,7.35C-67.69,6.925 -66.156,6.87 -64.715,7.212C-63.141,7.588 -61.775,8.489 -60.273,9.057C-56.548,10.463 -52.927,9.127 -50.267,6.369C-48.072,4.097 -45.916,1.953 -42.933,0.729C-40.436,-0.297 -37.663,-0.51 -35.164,0.622C-32.319,1.91 -30.367,4.502 -27.694,6.061C-24.527,7.913 -20.738,7.475 -17.24,8.033C-13.732,8.594 -11.055,11.539 -7.987,13.235C-6.939,13.816 -5.865,14.301 -4.642,14.271C-3.956,14.254 -3.283,14.068 -2.605,13.983C-1.549,13.853 -0.546,13.883 0.165,14.764C0.338,14.979 0.303,15.89 0,15.89" style="fill:rgb(236,236,236);fill-rule:nonzero;"/>
        </g>
        <g transform="matrix(1,0,0,1,259.847,136.206)">
            <path d="M0,15.888C-4.609,15.888 -82.168,16.399 -87.042,16.243C-87.392,16.233 -87.58,15.718 -87.232,15.545C-84.159,14.024 -80.674,14.329 -77.481,13.253C-75.602,12.62 -74.448,11.392 -73.145,9.983C-72.019,8.764 -70.713,7.831 -69.109,7.348C-67.69,6.923 -66.156,6.868 -64.715,7.21C-63.141,7.586 -61.775,8.487 -60.273,9.055C-56.548,10.461 -52.927,9.125 -50.267,6.367C-48.072,4.095 -45.916,1.951 -42.933,0.727C-40.436,-0.299 -37.663,-0.511 -35.164,0.62C-32.319,1.908 -30.367,4.501 -27.695,6.059C-24.527,7.911 -20.738,7.473 -17.24,8.031C-13.732,8.592 -11.055,11.537 -7.987,13.233C-6.939,13.814 -5.865,14.299 -4.642,14.269C-3.956,14.252 -3.283,14.066 -2.605,13.981C-1.549,13.851 -0.546,13.881 0.165,14.762C0.338,14.977 0.302,15.888 0,15.888" style="fill:rgb(236,236,236);fill-rule:nonzero;"/>
        </g>
        <g transform="matrix(1,0,0,1,134.832,192.03)">
            <path d="M0,15.89C-4.609,15.89 -82.168,16.4 -87.042,16.245C-87.392,16.235 -87.58,15.72 -87.232,15.547C-84.159,14.026 -80.674,14.331 -77.481,13.255C-75.602,12.622 -74.448,11.394 -73.145,9.985C-72.019,8.766 -70.713,7.833 -69.109,7.35C-67.69,6.925 -66.156,6.87 -64.715,7.212C-63.141,7.588 -61.775,8.489 -60.273,9.057C-56.548,10.463 -52.927,9.127 -50.267,6.369C-48.072,4.097 -45.916,1.953 -42.933,0.729C-40.436,-0.297 -37.663,-0.51 -35.164,0.622C-32.319,1.91 -30.367,4.503 -27.695,6.061C-24.527,7.913 -20.738,7.475 -17.24,8.033C-13.732,8.594 -11.055,11.539 -7.987,13.235C-6.939,13.816 -5.865,14.301 -4.642,14.271C-3.956,14.254 -3.283,14.068 -2.605,13.983C-1.549,13.853 -0.546,13.883 0.165,14.764C0.338,14.979 0.303,15.89 0,15.89" style="fill:rgb(236,236,236);fill-rule:nonzero;"/>
        </g>
    </g>
    <g id="Mountains">
        <g transform="matrix(1,0,0,1,39.3555,307.465)">
            <path d="M0,169.978C0,169.978 44.935,105.923 54.101,100.178C61.085,95.801 80.714,59.261 94.936,33.733C96.658,30.641 103.214,33.178 104.787,30.315C110.109,20.63 114.418,12.588 116.645,8.447C121.187,0 147.347,3.898 151.624,8.447C153.821,10.785 169.346,45.25 179.229,61.586C182.404,66.835 203.258,70.187 211.822,72.878C220.094,75.478 242.302,125.053 248.73,128.654C284.251,148.557 293.03,166.348 300.09,169.962L0,169.962L0,169.978Z" style="fill:rgb(55,90,100);fill-rule:nonzero;"/>
        </g>
        <g opacity="0.4">
            <g transform="matrix(1,0,0,1,39.3531,477.443)">
                <path d="M0,-0.017L0,0C0,0 0.006,-0.006 0.013,-0.017L0,-0.017Z" style="fill-rule:nonzero;"/>
            </g>
        </g>
        <g opacity="0.2">
            <g transform="matrix(1,0,0,1,39.3555,477.445)">
                <path d="M0,-0.019L0,0C0,0 0.006,-0.01 0.017,-0.019L0,-0.019Z" style="fill-rule:nonzero;"/>
            </g>
        </g>
        <g opacity="0.1">
            <g transform="matrix(1,0,0,1,39.3728,314.072)">
                <path d="M0,163.354L178.761,163.354C167.963,154.861 144.946,136.471 142.933,132.517C140.295,127.346 136.866,89.933 135.886,84.975C134.905,80.017 116.601,50.371 115.839,45.031C115.076,39.738 118.104,0.809 118.167,0.009L118.167,0C118.155,0.009 118.138,0.019 118.126,0.037C118.058,0.084 117.995,0.139 117.932,0.204C117.857,0.27 117.782,0.335 117.708,0.418C117.633,0.493 117.565,0.567 117.496,0.632C117.433,0.707 117.369,0.772 117.312,0.846C117.243,0.93 117.175,1.014 117.112,1.097C117.089,1.135 117.06,1.163 117.037,1.2C116.98,1.274 116.928,1.349 116.876,1.433C116.842,1.488 116.808,1.535 116.779,1.59C116.727,1.684 116.676,1.758 116.63,1.851C116.527,2.046 116.418,2.242 116.303,2.456C116.188,2.67 116.068,2.893 115.947,3.116C115.827,3.339 115.695,3.581 115.569,3.823C115.437,4.065 115.299,4.316 115.162,4.577C112.748,9.051 109.095,15.841 104.771,23.711C104.714,23.813 104.651,23.916 104.576,24C104.513,24.092 104.444,24.167 104.37,24.232C104.284,24.325 104.186,24.399 104.083,24.474C104.009,24.53 103.928,24.576 103.842,24.622C103.842,24.622 103.257,43.366 103.384,45.031C103.51,46.696 108.791,58.594 109.106,61.18C109.422,63.766 108.63,73.71 109.141,75.84C109.433,77.077 114.715,90.1 116.102,93.291C116.486,94.156 112.306,93.588 112.192,93.588C111.664,93.588 106.727,82.007 105.781,81.179C104.829,80.342 104.043,64.78 103.384,63.598C102.718,62.408 96.29,49.534 95.447,48.11C94.604,46.696 94.92,27.134 94.92,27.134C92.253,31.916 89.392,37.087 86.468,42.371C85.739,43.683 85,45.013 84.26,46.334C84.013,46.771 83.767,47.218 83.52,47.664C82.843,48.883 82.167,50.101 81.484,51.31C80.556,52.966 79.626,54.612 78.703,56.25C78.239,57.068 77.78,57.887 77.316,58.696C76.857,59.505 76.398,60.305 75.939,61.105C75.486,61.905 75.028,62.705 74.575,63.487C72.763,66.64 70.979,69.673 69.265,72.538C68.835,73.254 68.41,73.961 67.986,74.649C64.735,79.998 61.747,84.621 59.23,88.007C58.817,88.556 58.421,89.077 58.037,89.56C57.773,89.895 57.515,90.212 57.263,90.509C57.108,90.695 56.959,90.872 56.81,91.04C56.363,91.551 55.938,92.007 55.542,92.388C55.542,92.388 71.306,106.258 73.634,110.192C75.957,114.118 81.622,139.085 83.446,141.95C85.263,144.824 97.38,156.294 96.881,157.224C96.376,158.163 74.013,152.564 71.484,147.178C68.949,141.792 63.548,121.374 61.048,118.602C59.138,116.481 50.04,107.222 45.102,102.84C23.993,128.488 0.895,162.433 0,163.354" style="fill-rule:nonzero;"/>
            </g>
        </g>
        <g opacity="0.1">
            <g transform="matrix(1,0,0,1,209.829,371.915)">
                <path d="M0,42.709C0.689,43.338 13.495,39.217 14.261,38.939C15.02,38.666 19.195,26.191 20.005,26.414C20.821,26.631 31.406,22.978 32.83,21.374C34.253,19.765 37.954,7.708 37.954,7.708L37.923,7.702C37.923,7.702 36.563,7.273 34.437,6.588C26.522,4.667 16.228,2.361 11.274,-0.629C11.002,1.966 9.724,14.674 9.965,16.663C10.237,18.885 12.331,24.031 11.698,25.668C11.065,27.294 -0.696,42.08 0,42.709" style="fill-rule:nonzero;"/>
            </g>
        </g>
        <g transform="matrix(1,0,0,1,171.349,373.094)">
            <path d="M0,104.332C0,104.332 79.31,77.961 89.365,74.52C95.761,72.33 125.352,36.3 145.544,15.581C147.106,13.978 154.888,15.399 155.836,14.78C163.974,9.465 170.212,0 175.214,0C180.659,0 222.414,59.36 226.762,64.353C231.109,69.346 254.639,87.361 261.924,89.189C269.208,91.016 289.298,104.332 289.298,104.332L0,104.332Z" style="fill:rgb(43,69,78);fill-rule:nonzero;"/>
        </g>
        <g opacity="0.1">
            <g transform="matrix(1,0,0,1,371.428,414.18)">
                <path d="M0,22.159C-0.157,21.511 3.856,14.269 4.365,13.898C4.874,13.51 10.134,13.51 10.414,13.51C10.695,13.51 12.222,10.941 12.502,10.988C12.789,11.044 14.538,11.897 14.819,12.087C15.106,12.285 13.97,16.412 13.435,16.57C12.9,16.751 9.116,21.969 8.548,22.159C7.987,22.349 0.215,23.013 0,22.159M-84.592,63.245L89.219,63.245C89.219,63.245 83.209,59.26 76.573,55.355C76.194,55.126 75.816,54.904 75.431,54.683C75.242,54.572 75.046,54.462 74.857,54.351C74.472,54.13 74.093,53.908 73.708,53.695C73.513,53.584 73.323,53.473 73.134,53.371C72.56,53.046 71.986,52.73 71.425,52.422C70.668,52.011 69.924,51.608 69.193,51.236C68.469,50.857 67.757,50.501 67.079,50.177C66.733,50.011 66.4,49.853 66.074,49.703C65.748,49.552 65.421,49.41 65.115,49.275C64.802,49.141 64.495,49.015 64.208,48.896C63.914,48.777 63.627,48.667 63.353,48.572C62.805,48.374 62.302,48.208 61.846,48.098C61.617,48.042 61.376,47.971 61.115,47.884C60.854,47.789 60.586,47.695 60.299,47.576C59.869,47.402 59.405,47.196 58.916,46.959C58.59,46.801 58.25,46.635 57.905,46.453C57.559,46.272 57.2,46.074 56.828,45.876C52.763,43.631 47.503,40.066 42.479,36.366C41.109,35.361 39.758,34.342 38.453,33.338C38.016,33.006 37.585,32.674 37.161,32.342C36.528,31.843 35.902,31.353 35.301,30.871C34.897,30.555 34.505,30.231 34.12,29.922C33.539,29.456 32.985,28.997 32.45,28.547C32.091,28.254 31.745,27.962 31.412,27.677C30.244,26.681 29.22,25.78 28.385,24.989C28.143,24.768 27.921,24.555 27.712,24.349C27.301,23.938 26.956,23.574 26.681,23.266C22.336,18.277 -19.419,-41.086 -24.867,-41.086C-24.867,-41.086 -14.766,-8.776 -14.891,-6.57C-15.014,-4.364 -29.272,11.13 -29.559,12.775C-29.866,14.53 -30.192,24.246 -31.197,25.076C-31.934,25.685 -67.099,50.944 -84.592,63.245" style="fill-rule:nonzero;"/>
            </g>
        </g>
    </g>
    <g id="Floor">
        <g transform="matrix(1,0,0,1,465.537,395.435)">
            <path d="M0,82.009L-74.417,73.064L-105.939,59.162L-178.719,41.961L-257.861,47.283L-318.153,23.505L-362.019,6.284L-387.524,0L-431.073,0.545L-431.073,82.009L0,82.009Z" style="fill:rgb(236,236,236);fill-rule:nonzero;"/>
        </g>
        <g transform="matrix(1,0,0,1,465.537,395.238)">
            <path d="M0,82.207C-24.84,79.296 -49.703,76.527 -74.529,73.515L-106.071,59.66C-105.789,59.743 -178.877,42.57 -178.82,42.589C-197.794,43.973 -238.329,46.647 -257.832,47.919C-258.163,48.011 -361.938,6.697 -362.084,6.744C-362.083,6.744 -387.569,0.384 -387.569,0.384C-387.403,0.383 -431.071,0.75 -431.073,0.743C-431.064,0.741 -387.493,0 -387.478,0.013L-361.954,6.22C-361.981,6.227 -257.103,47.237 -257.89,47.043C-238.104,45.672 -198.407,42.95 -178.618,41.73C-178.55,41.749 -105.861,59.032 -105.806,59.059L-74.306,73.009C-49.948,75.907 -24.656,79.169 0,82.207" style="fill:rgb(26,46,53);fill-rule:nonzero;"/>
        </g>
    </g>
    <g id="Birds">
        <g transform="matrix(1,0,0,1,107.201,71.35)">
            <path d="M0,-3.949C0.715,-4.323 1.461,-4.627 2.223,-4.901C2.994,-5.156 3.76,-5.407 4.646,-5.46C4.872,-5.466 5.105,-5.471 5.398,-5.377C5.467,-5.358 5.552,-5.312 5.629,-5.268C5.69,-5.228 5.728,-5.197 5.778,-5.161C5.876,-5.091 5.952,-5.019 6.038,-4.947C6.363,-4.659 6.644,-4.36 6.92,-4.056C7.466,-3.442 7.951,-2.803 8.438,-2.147L7.836,-2.358C8.656,-2.586 9.465,-2.764 10.309,-2.879C10.732,-2.931 11.157,-2.973 11.602,-2.97C11.825,-2.967 12.05,-2.959 12.289,-2.921C12.403,-2.911 12.537,-2.863 12.659,-2.831C12.783,-2.791 12.909,-2.716 13.029,-2.656C13.452,-2.377 13.73,-2.051 14.006,-1.719C14.274,-1.384 14.51,-1.037 14.737,-0.686C15.173,0.027 15.57,0.755 15.888,1.522C15.357,0.886 14.844,0.246 14.297,-0.356C14.029,-0.659 13.756,-0.957 13.466,-1.224C13.183,-1.488 12.884,-1.761 12.596,-1.901C12.369,-2.011 12.002,-2.013 11.627,-1.996C11.251,-1.975 10.86,-1.911 10.472,-1.838C9.695,-1.699 8.902,-1.506 8.141,-1.299L7.758,-1.195L7.539,-1.51C7.094,-2.148 6.611,-2.778 6.128,-3.385C5.888,-3.687 5.639,-3.986 5.383,-4.245C5.319,-4.305 5.254,-4.375 5.192,-4.424L5.103,-4.499C5.093,-4.502 5.095,-4.514 5.068,-4.523C4.985,-4.567 4.813,-4.598 4.642,-4.608C3.929,-4.634 3.129,-4.514 2.356,-4.384C1.574,-4.258 0.792,-4.096 0,-3.949" style="fill:rgb(26,46,53);fill-rule:nonzero;"/>
        </g>
        <g transform="matrix(1,0,0,1,115.941,90.6931)">
            <path d="M0,0.323C0.942,-0.435 1.949,-1.099 2.988,-1.725C4.047,-2.324 5.099,-2.917 6.385,-3.253C6.717,-3.328 7.057,-3.403 7.515,-3.35C7.622,-3.343 7.761,-3.3 7.887,-3.257C7.988,-3.217 8.052,-3.182 8.136,-3.143C8.302,-3.069 8.434,-2.986 8.581,-2.906C9.142,-2.577 9.642,-2.219 10.136,-1.853C11.118,-1.111 12.017,-0.314 12.924,0.509L11.978,0.375C13.116,-0.2 14.253,-0.697 15.46,-1.113C16.066,-1.312 16.678,-1.498 17.332,-1.624C17.661,-1.685 17.994,-1.739 18.357,-1.753C18.527,-1.771 18.738,-1.74 18.926,-1.728C19.121,-1.705 19.328,-1.633 19.521,-1.578C20.224,-1.292 20.729,-0.895 21.23,-0.487C21.723,-0.074 22.17,0.368 22.605,0.818C23.455,1.738 24.25,2.691 24.942,3.726C23.976,2.946 23.035,2.155 22.056,1.431C21.574,1.064 21.085,0.706 20.582,0.398C20.089,0.093 19.57,-0.222 19.105,-0.343C18.74,-0.438 18.201,-0.334 17.654,-0.2C17.108,-0.059 16.552,0.148 16.003,0.369C14.902,0.8 13.794,1.315 12.735,1.842L12.203,2.106L11.789,1.708C10.949,0.9 10.055,0.114 9.17,-0.636C8.728,-1.011 8.275,-1.377 7.822,-1.682C7.711,-1.752 7.595,-1.836 7.49,-1.889L7.338,-1.974C7.322,-1.976 7.321,-1.994 7.279,-1.999C7.145,-2.039 6.882,-2.035 6.629,-2C5.574,-1.831 4.432,-1.42 3.334,-1.004C2.222,-0.591 1.121,-0.124 0,0.323" style="fill:rgb(26,46,53);fill-rule:nonzero;"/>
        </g>
        <g transform="matrix(1,0,0,1,411.592,174.849)">
            <path d="M0,-0.467C0.645,-0.953 1.331,-1.374 2.037,-1.769C2.757,-2.146 3.471,-2.52 4.337,-2.717C4.559,-2.759 4.788,-2.803 5.092,-2.757C5.164,-2.75 5.255,-2.718 5.339,-2.687C5.405,-2.658 5.447,-2.634 5.502,-2.606C5.611,-2.553 5.698,-2.495 5.794,-2.438C6.161,-2.207 6.487,-1.957 6.809,-1.702C7.449,-1.187 8.031,-0.636 8.619,-0.067L7.991,-0.177C8.762,-0.536 9.531,-0.844 10.346,-1.096C10.754,-1.215 11.166,-1.326 11.606,-1.396C11.826,-1.43 12.05,-1.459 12.292,-1.46C12.406,-1.469 12.546,-1.444 12.671,-1.432C12.801,-1.412 12.937,-1.36 13.065,-1.319C13.528,-1.113 13.856,-0.838 14.182,-0.555C14.502,-0.268 14.791,0.036 15.072,0.345C15.619,0.977 16.129,1.631 16.569,2.336C15.941,1.795 15.33,1.247 14.692,0.743C14.379,0.487 14.06,0.238 13.731,0.022C13.408,-0.192 13.069,-0.413 12.761,-0.504C12.519,-0.575 12.158,-0.518 11.79,-0.44C11.423,-0.357 11.047,-0.231 10.676,-0.095C9.933,0.169 9.182,0.489 8.464,0.818L8.104,0.983L7.836,0.708C7.293,0.151 6.714,-0.392 6.139,-0.911C5.852,-1.171 5.557,-1.425 5.262,-1.638C5.189,-1.687 5.113,-1.746 5.044,-1.783L4.945,-1.843C4.934,-1.845 4.934,-1.856 4.906,-1.861C4.817,-1.891 4.642,-1.893 4.473,-1.875C3.765,-1.785 2.994,-1.535 2.253,-1.281C1.502,-1.029 0.758,-0.741 0,-0.467" style="fill:rgb(26,46,53);fill-rule:nonzero;"/>
        </g>
        <g transform="matrix(1,0,0,1,383.172,163.163)">
            <path d="M0,7.612C0.675,6.608 1.439,5.675 2.246,4.77C3.079,3.883 3.908,3.005 5.036,2.302C5.33,2.132 5.633,1.959 6.086,1.874C6.191,1.849 6.335,1.849 6.469,1.852C6.577,1.86 6.648,1.875 6.74,1.887C6.92,1.908 7.072,1.949 7.236,1.982C7.869,2.129 8.453,2.322 9.034,2.525C10.191,2.942 11.286,3.437 12.397,3.953L11.453,4.106C12.369,3.219 13.307,2.407 14.337,1.651C14.857,1.282 15.386,0.922 15.973,0.608C16.269,0.452 16.571,0.301 16.914,0.181C17.07,0.113 17.281,0.079 17.464,0.035C17.657,0 17.876,0.007 18.077,0.001C18.833,0.066 19.433,0.295 20.033,0.536C20.626,0.785 21.184,1.074 21.733,1.374C22.818,2.001 23.86,2.675 24.828,3.458C23.674,3 22.54,2.524 21.391,2.123C20.822,1.915 20.249,1.718 19.677,1.574C19.115,1.429 18.526,1.282 18.047,1.305C17.669,1.322 17.185,1.581 16.703,1.872C16.223,2.169 15.754,2.532 15.295,2.905C14.372,3.644 13.466,4.465 12.612,5.282L12.182,5.693L11.668,5.435C10.626,4.913 9.54,4.427 8.472,3.974C7.938,3.748 7.397,3.532 6.874,3.375C6.747,3.341 6.612,3.295 6.496,3.276L6.325,3.24C6.309,3.243 6.304,3.227 6.261,3.234C6.121,3.235 5.872,3.317 5.641,3.426C4.683,3.901 3.715,4.632 2.79,5.355C1.85,6.08 0.938,6.853 0,7.612" style="fill:rgb(26,46,53);fill-rule:nonzero;"/>
        </g>
        <g transform="matrix(1,0,0,1,71.8393,83.1935)">
            <path d="M0,7.612C0.674,6.608 1.439,5.675 2.246,4.77C3.079,3.883 3.908,3.005 5.036,2.302C5.33,2.132 5.633,1.959 6.086,1.874C6.191,1.849 6.335,1.849 6.469,1.852C6.577,1.86 6.648,1.875 6.74,1.887C6.921,1.908 7.072,1.949 7.236,1.982C7.869,2.129 8.453,2.322 9.034,2.525C10.191,2.942 11.286,3.437 12.397,3.953L11.453,4.106C12.37,3.219 13.308,2.407 14.337,1.651C14.857,1.282 15.386,0.923 15.973,0.608C16.269,0.452 16.571,0.301 16.914,0.18C17.071,0.113 17.281,0.08 17.464,0.035C17.657,0 17.876,0.007 18.077,0.002C18.833,0.067 19.433,0.296 20.033,0.536C20.626,0.785 21.184,1.074 21.733,1.374C22.817,2.001 23.86,2.675 24.828,3.458C23.674,3 22.54,2.524 21.391,2.123C20.822,1.915 20.249,1.718 19.677,1.574C19.115,1.429 18.526,1.282 18.047,1.305C17.669,1.322 17.185,1.581 16.703,1.872C16.224,2.169 15.754,2.532 15.295,2.905C14.372,3.644 13.466,4.465 12.612,5.282L12.182,5.693L11.668,5.435C10.627,4.913 9.54,4.427 8.472,3.974C7.938,3.748 7.397,3.532 6.875,3.375C6.747,3.341 6.612,3.296 6.496,3.276L6.325,3.24C6.309,3.243 6.304,3.227 6.261,3.234C6.121,3.235 5.872,3.317 5.641,3.426C4.683,3.901 3.715,4.632 2.79,5.355C1.851,6.08 0.938,6.853 0,7.612" style="fill:rgb(26,46,53);fill-rule:nonzero;"/>
        </g>
    </g>
    <g id="Character">
        <g transform="matrix(1,0,0,1,276.956,112.754)">
            <path d="M0,166.34L-36.407,141.323C-36.407,141.323 -5.322,91.28 -5.509,86.478C-5.706,81.427 -55.641,58.954 -61.783,37.028C-69.076,10.991 -37.77,0 -37.77,0L-2.28,25.437C-2.28,25.437 -4.714,32.757 -4.608,34.166C-4.484,35.813 46.815,59.473 46.218,80.058C45.374,109.166 0,166.34 0,166.34" style="fill:rgb(195,99,88);fill-rule:nonzero;"/>
        </g>
        <g transform="matrix(1,0,0,1,308.21,139.396)">
            <path d="M0,29.573L-39.193,59.43C-40.664,58.406 -45.185,58.076 -47.176,56.73C-62.648,46.268 -88.657,26.022 -93.038,10.387C-100.331,-15.656 -68.74,-29.857 -68.74,-29.857L-30.957,0.043C-30.957,0.043 -33.305,6.822 -33.202,8.227C-33.145,9.072 -15.787,15.455 -2.976,24.316C-1.018,25.67 0,29.573 0,29.573" style="fill:rgb(255,200,0);fill-rule:nonzero;"/>
        </g>
        <g opacity="0.3">
            <g transform="matrix(1,0,0,1,308.21,139.396)">
                <path d="M0,29.573L-39.193,59.43C-40.664,58.406 -45.185,58.076 -47.176,56.73C-62.648,46.268 -88.657,26.022 -93.038,10.387C-100.331,-15.656 -68.74,-29.857 -68.74,-29.857L-30.957,0.043C-30.957,0.043 -33.305,6.822 -33.202,8.227C-33.145,9.072 -15.787,15.455 -2.976,24.316C-1.018,25.67 0,29.573 0,29.573" style="fill-rule:nonzero;"/>
            </g>
        </g>
        <g transform="matrix(1,0,0,1,276.316,235.056)">
            <path d="M0,87.125C-2.513,86.372 -49.57,50.132 -50.783,47.16C-51.263,46.039 -49.398,38.709 -42.441,28.252C-42.368,28.144 -42.294,28.035 -42.221,27.927C-40.792,25.769 -23.513,-0.764 -23.513,-0.764L15.628,23.404L-4.456,54.062L-4.921,54.688C-4.921,54.688 10.262,80.385 11.253,83.794C12.231,87.183 2.508,87.889 0,87.125" style="fill:rgb(236,236,236);fill-rule:nonzero;"/>
        </g>
        <g transform="matrix(1,0,0,1,284.668,262.435)">
            <path d="M0,67.731C-2.628,66.913 -63.722,23.024 -64.962,19.893C-65.454,18.712 -50.242,-0.715 -50.164,-0.828L-11.98,26.205L-12.475,26.856C-12.475,26.856 3.167,53.979 4.169,57.566C5.158,61.131 2.622,68.559 0,67.731" style="fill:rgb(43,69,78);fill-rule:nonzero;"/>
        </g>
        <g transform="matrix(0.582906,-0.81254,-0.81254,-0.582906,290.741,293.16)">
            <path d="M-30.709,-15.806C-30.34,-3.22 -30.038,47.576 -30.629,60.044C-30.634,60.147 -30.703,60.147 -30.709,60.045C-31.347,47.579 -31.237,-3.218 -30.914,-15.806C-30.908,-16.07 -30.717,-16.071 -30.709,-15.806" style="fill:white;fill-rule:nonzero;"/>
        </g>
        <g transform="matrix(0.372205,-0.928151,-0.928151,-0.372205,273.766,283.473)">
            <path d="M-7.11,-4.596C-5.009,-0.017 -4.273,6.045 -6.775,10.574C-6.872,10.749 -7.119,10.609 -7.11,10.441C-6.805,5.327 -6.955,0.659 -7.712,-4.425C-7.766,-4.783 -7.261,-4.925 -7.11,-4.596" style="fill:white;fill-rule:nonzero;"/>
        </g>
        <g transform="matrix(0.372205,-0.928151,-0.928151,-0.372205,275.397,287.316)">
            <path d="M-7.11,-4.596C-5.009,-0.017 -4.273,6.045 -6.775,10.574C-6.872,10.749 -7.12,10.609 -7.11,10.441C-6.805,5.327 -6.955,0.659 -7.712,-4.425C-7.766,-4.783 -7.261,-4.925 -7.11,-4.596" style="fill:white;fill-rule:nonzero;"/>
        </g>
        <g transform="matrix(0.372262,-0.928128,-0.928128,-0.372262,277.028,291.158)">
            <path d="M-7.11,-4.597C-5.008,-0.017 -4.274,6.044 -6.776,10.574C-6.873,10.749 -7.121,10.609 -7.11,10.441C-6.805,5.326 -6.956,0.659 -7.712,-4.426C-7.766,-4.783 -7.26,-4.924 -7.11,-4.597" style="fill:white;fill-rule:nonzero;"/>
        </g>
        <g transform="matrix(0.536911,-0.843639,-0.843639,-0.536911,289.786,288.316)">
            <path d="M-35.45,-19.451C-36.045,-20.754 -40.507,-20.196 -40.807,-19.211C-41.109,-18.226 -35.844,63.02 -35.45,64.382C-35.057,65.746 -30.132,64.938 -29.975,63.319C-29.817,61.7 -35.45,-19.451 -35.45,-19.451" style="fill:rgb(255,200,0);fill-rule:nonzero;"/>
        </g>
        <g transform="matrix(1,0,0,1,238.439,279.157)">
            <path d="M0,-4.344C-2.795,-9.712 -11.143,-5.377 -8.343,-0C-5.548,5.368 2.8,1.033 0,-4.344" style="fill:white;fill-rule:nonzero;"/>
        </g>
        <g opacity="0.1">
            <g transform="matrix(1,0,0,1,293.82,187)">
                <path d="M0,68.87C-1.33,70.84 -2.63,72.73 -3.89,74.52L-3.94,74.6L-21.48,101.39L-21.13,101.64L-21.5,102.12C-20.37,102.92 -19.34,103.83 -18.43,104.78C-18.19,105.04 -18.5,105.46 -18.82,105.28C-19.36,104.96 -19.9,104.66 -20.44,104.36C-20.11,104.94 -19.71,105.63 -19.27,106.41C-18.37,107.1 -17.54,107.85 -16.8,108.63C-16.56,108.89 -16.87,109.3 -17.19,109.12C-17.45,108.97 -17.72,108.81 -17.98,108.67C-17.55,109.44 -17.08,110.25 -16.61,111.1C-16.1,111.53 -15.62,112 -15.17,112.47C-14.92,112.73 -15.23,113.14 -15.55,112.97C-11.03,120.98 -5.56,130.92 -4.98,133C-4.32,135.37 -5.22,139.44 -6.67,141.66L-6.66,141.67C-5.88,142.87 -8.75,146.33 -9.74,146.06C-10.73,145.78 -76.44,97.72 -77.38,96.66C-78.32,95.59 -75,91.87 -73.55,92.61C-73.48,92.64 -73.28,92.78 -72.95,93.02C-72.94,93.01 -72.94,93.02 -72.94,93.02C-69.47,87.59 -59.38,74.7 -59.32,74.61L-58.98,74.85C-56.34,70.82 -48.08,58.13 -43.74,51.47C-43.71,51.41 -43.67,51.36 -43.64,51.31C-34.53,36.2 -22.26,15.25 -22.37,12.23C-22.39,11.83 -22.71,11.32 -23.31,10.7L-24.8,11.83C-26.27,10.8 -30.79,10.47 -32.79,9.13C-47.59,-0.89 -72.04,-19.84 -77.95,-35.16C-78.09,-35.51 -78.21,-35.85 -78.33,-36.19C-78.45,-36.53 -78.55,-36.88 -78.65,-37.22C-78.8,-37.77 -78.94,-38.31 -79.06,-38.85C-79.11,-39.08 -79.16,-39.31 -79.2,-39.53C-79.3,-40.03 -79.38,-40.52 -79.45,-41.01C-79.47,-41.1 -79.48,-41.19 -79.49,-41.27C-79.57,-41.87 -79.63,-42.47 -79.68,-43.06C-79.68,-43.06 -79.67,-43.06 -79.68,-43.07C-79.78,-44.34 -79.77,-45.58 -79.68,-46.77C-79.65,-47.08 -79.63,-47.38 -79.59,-47.69C-79.55,-48 -79.51,-48.3 -79.47,-48.6C-76.8,-67.37 -54.35,-77.46 -54.35,-77.46L-26.09,-55.1L-25.77,-53.56L-13.77,3.43L0,68.87Z" style="fill-rule:nonzero;"/>
            </g>
        </g>
        <g transform="matrix(0.268861,0.963179,0.963179,-0.268861,197.032,286.688)">
            <path d="M-50.528,-66.564L87.689,-66.564" style="fill:none;fill-rule:nonzero;stroke:rgb(200,200,200);stroke-width:1px;"/>
        </g>
        <g transform="matrix(0.391767,0.920064,0.920064,-0.391767,173.791,278.704)">
            <path d="M-41.738,-63.137L95.506,-63.137" style="fill:none;fill-rule:nonzero;stroke:rgb(200,200,200);stroke-width:1px;"/>
        </g>
        <g transform="matrix(-0.565961,0.824432,0.824432,0.565961,146.73,381.941)">
            <path d="M-106.237,-55.931L29.446,-55.931" style="fill:none;fill-rule:nonzero;stroke:rgb(200,200,200);stroke-width:1px;"/>
        </g>
        <g transform="matrix(-0.420943,0.907087,0.907087,0.420943,181.842,381.377)">
            <path d="M-101.928,-65.068L41.537,-65.068" style="fill:none;fill-rule:nonzero;stroke:rgb(200,200,200);stroke-width:1px;"/>
        </g>
        <g transform="matrix(-0.989008,0.147862,0.147862,0.989008,62.9762,336.887)">
            <path d="M-137.518,-10.223L0.76,-10.223" style="fill:none;fill-rule:nonzero;stroke:rgb(200,200,200);stroke-width:1px;"/>
        </g>
        <g transform="matrix(0.910405,0.413718,0.413718,-0.910405,84.497,280.074)">
            <path d="M-6.269,-28.947L133.665,-28.947" style="fill:none;fill-rule:nonzero;stroke:rgb(200,200,200);stroke-width:1px;"/>
        </g>
        <g transform="matrix(-0.909585,-0.415519,-0.415519,0.909585,89.3853,262.889)">
            <path d="M-136.592,29.722L6.467,29.722" style="fill:none;fill-rule:nonzero;stroke:rgb(200,200,200);stroke-width:1px;"/>
        </g>
        <g transform="matrix(-0.858931,0.512092,0.512092,0.858931,101.039,390.802)">
            <path d="M-130.488,-35.947L9.902,-35.947" style="fill:none;fill-rule:nonzero;stroke:rgb(200,200,200);stroke-width:1px;"/>
        </g>
        <g transform="matrix(1,0,0,1,117.576,257.214)">
            <path d="M0,134.036C-36.949,126.648 -61.005,90.565 -53.617,53.616C-46.227,16.658 -10.146,-7.389 26.803,-0.001C63.761,7.39 87.808,43.471 80.42,80.419C73.029,117.378 36.949,141.425 0,134.036M29.607,-14.023C-15.079,-22.955 -58.697,6.128 -67.639,50.812C-76.572,95.498 -47.488,139.116 -2.804,148.058C41.882,156.991 85.5,127.908 94.442,83.223C103.375,38.537 74.291,-5.081 29.607,-14.023" style="fill:rgb(26,46,53);fill-rule:nonzero;"/>
        </g>
        <g transform="matrix(1,0,0,1,155.327,240.086)">
            <path d="M0,8.787L-17.512,5.247C-18.961,4.954 -19.898,3.542 -19.605,2.093C-19.312,0.644 -17.9,-0.293 -16.451,0L1.061,3.54C2.51,3.833 3.447,5.245 3.154,6.694C2.861,8.143 1.449,9.08 0,8.787" style="fill:rgb(26,46,53);fill-rule:nonzero;"/>
        </g>
        <g transform="matrix(1,0,0,1,128.085,242.459)">
            <path d="M0,2.631L-17.667,5.293C-19.129,5.514 -20.492,4.507 -20.712,3.046C-20.933,1.584 -19.926,0.221 -18.465,-0L-0.798,-2.662C0.664,-2.883 2.027,-1.876 2.248,-0.415C2.468,1.047 1.462,2.411 0,2.631" style="fill:rgb(26,46,53);fill-rule:nonzero;"/>
        </g>
        <g transform="matrix(1,0,0,1,101.191,254.695)">
            <path d="M0,-3.843L-15.691,4.701C-16.989,5.408 -18.615,4.929 -19.321,3.631C-20.028,2.333 -19.549,0.707 -18.251,0L-2.56,-8.544C-1.262,-9.251 0.364,-8.772 1.071,-7.474C1.778,-6.175 1.298,-4.55 0,-3.843" style="fill:rgb(26,46,53);fill-rule:nonzero;"/>
        </g>
        <g transform="matrix(1,0,0,1,77.8903,275.319)">
            <path d="M0,-9.854L-11.822,3.542C-12.8,4.65 -14.492,4.756 -15.6,3.778C-16.708,2.799 -16.814,1.108 -15.836,0L-4.014,-13.396C-3.035,-14.504 -1.344,-14.61 -0.236,-13.632C0.873,-12.654 0.978,-10.962 0,-9.854" style="fill:rgb(26,46,53);fill-rule:nonzero;"/>
        </g>
        <g transform="matrix(1,0,0,1,60.9926,301.842)">
            <path d="M0,-14.676L-6.528,1.955C-7.068,3.331 -8.621,4.009 -9.997,3.469C-11.373,2.929 -12.051,1.376 -11.511,0L-4.983,-16.632C-4.443,-18.008 -2.89,-18.685 -1.514,-18.145C-0.138,-17.605 0.54,-16.052 0,-14.676" style="fill:rgb(26,46,53);fill-rule:nonzero;"/>
        </g>
        <g transform="matrix(1,0,0,1,52.5361,331.066)">
            <path d="M0,-17.728L-0.446,0.133C-0.483,1.611 -1.711,2.779 -3.188,2.742C-4.666,2.705 -5.834,1.477 -5.797,-0.001L-5.351,-17.862C-5.314,-19.339 -4.087,-20.507 -2.609,-20.47C-1.131,-20.434 0.037,-19.206 0,-17.728" style="fill:rgb(26,46,53);fill-rule:nonzero;"/>
        </g>
        <g transform="matrix(1,0,0,1,53.5408,359.464)">
            <path d="M0,-18.641L5.69,-1.705C6.161,-0.303 5.406,1.214 4.005,1.685C2.604,2.156 1.086,1.401 0.616,0L-5.074,-16.936C-5.545,-18.337 -4.791,-19.855 -3.39,-20.326C-1.988,-20.797 -0.471,-20.042 0,-18.641" style="fill:rgb(26,46,53);fill-rule:nonzero;"/>
        </g>
        <g transform="matrix(1,0,0,1,63.8855,383.615)">
            <path d="M0,-17.307L11.139,-3.338C12.061,-2.182 11.871,-0.498 10.715,0.423C9.56,1.345 7.876,1.155 6.954,-0.001L-4.185,-13.97C-5.107,-15.125 -4.917,-16.809 -3.761,-17.731C-2.606,-18.652 -0.922,-18.463 0,-17.307" style="fill:rgb(26,46,53);fill-rule:nonzero;"/>
        </g>
        <g transform="matrix(1,0,0,1,82.3226,400.601)">
            <path d="M0,-13.884L15.245,-4.567C16.507,-3.797 16.904,-2.149 16.133,-0.888C15.363,0.373 13.715,0.771 12.454,0L-2.791,-9.316C-4.053,-10.087 -4.45,-11.734 -3.679,-12.996C-2.909,-14.257 -1.261,-14.655 0,-13.884" style="fill:rgb(26,46,53);fill-rule:nonzero;"/>
        </g>
        <g transform="matrix(1,0,0,1,106.628,408.377)">
            <path d="M0,-8.787L17.512,-5.246C18.961,-4.953 19.898,-3.541 19.605,-2.093C19.312,-0.644 17.9,0.293 16.451,-0L-1.061,-3.54C-2.51,-3.833 -3.447,-5.245 -3.154,-6.694C-2.861,-8.143 -1.449,-9.08 0,-8.787" style="fill:rgb(26,46,53);fill-rule:nonzero;"/>
        </g>
        <g transform="matrix(1,0,0,1,133.871,406.004)">
            <path d="M0,-2.631L17.667,-5.293C19.129,-5.514 20.492,-4.507 20.713,-3.046C20.933,-1.584 19.926,-0.221 18.465,-0L0.798,2.662C-0.664,2.883 -2.027,1.876 -2.248,0.415C-2.468,-1.047 -1.462,-2.411 0,-2.631" style="fill:rgb(26,46,53);fill-rule:nonzero;"/>
        </g>
        <g transform="matrix(1,0,0,1,160.764,393.768)">
            <path d="M0,3.843L15.691,-4.701C16.989,-5.408 18.615,-4.929 19.322,-3.631C20.028,-2.333 19.549,-0.707 18.251,-0L2.56,8.544C1.262,9.251 -0.364,8.772 -1.071,7.474C-1.777,6.175 -1.298,4.55 0,3.843" style="fill:rgb(26,46,53);fill-rule:nonzero;"/>
        </g>
        <g transform="matrix(1,0,0,1,184.065,373.144)">
            <path d="M0,9.854L11.822,-3.542C12.8,-4.65 14.492,-4.756 15.6,-3.778C16.708,-2.799 16.814,-1.108 15.836,-0L4.014,13.396C3.035,14.504 1.344,14.61 0.236,13.632C-0.873,12.654 -0.978,10.962 0,9.854" style="fill:rgb(26,46,53);fill-rule:nonzero;"/>
        </g>
        <g transform="matrix(1,0,0,1,200.963,346.621)">
            <path d="M0,14.676L6.528,-1.955C7.068,-3.331 8.621,-4.009 9.997,-3.469C11.373,-2.929 12.051,-1.376 11.511,-0L4.983,16.632C4.443,18.008 2.89,18.685 1.514,18.145C0.138,17.605 -0.54,16.052 0,14.676" style="fill:rgb(26,46,53);fill-rule:nonzero;"/>
        </g>
        <g transform="matrix(1,0,0,1,209.419,317.397)">
            <path d="M0,17.728L0.446,-0.133C0.483,-1.611 1.711,-2.779 3.188,-2.742C4.666,-2.705 5.834,-1.477 5.797,0.001L5.351,17.861C5.314,19.339 4.087,20.507 2.609,20.47C1.131,20.434 -0.037,19.206 0,17.728" style="fill:rgb(26,46,53);fill-rule:nonzero;"/>
        </g>
        <g transform="matrix(1,0,0,1,208.415,288.999)">
            <path d="M0,18.641L-5.69,1.705C-6.161,0.303 -5.406,-1.214 -4.005,-1.685C-2.604,-2.156 -1.086,-1.401 -0.616,-0L5.074,16.936C5.545,18.337 4.791,19.855 3.389,20.326C1.988,20.797 0.471,20.042 0,18.641" style="fill:rgb(26,46,53);fill-rule:nonzero;"/>
        </g>
        <g transform="matrix(1,0,0,1,198.07,264.848)">
            <path d="M0,17.307L-11.139,3.338C-12.061,2.183 -11.871,0.498 -10.715,-0.423C-9.56,-1.345 -7.876,-1.155 -6.954,0.001L4.185,13.97C5.107,15.125 4.917,16.809 3.761,17.731C2.606,18.652 0.922,18.463 0,17.307" style="fill:rgb(26,46,53);fill-rule:nonzero;"/>
        </g>
        <g transform="matrix(1,0,0,1,179.633,247.862)">
            <path d="M0,13.884L-15.245,4.568C-16.507,3.797 -16.904,2.149 -16.133,0.888C-15.363,-0.373 -13.715,-0.771 -12.454,0L2.791,9.316C4.053,10.087 4.45,11.735 3.679,12.996C2.909,14.257 1.261,14.655 0,13.884" style="fill:rgb(26,46,53);fill-rule:nonzero;"/>
        </g>
        <g transform="matrix(0.963179,-0.268861,-0.268861,-0.963179,307.928,401.168)">
            <path d="M-2.545,18.581L135.672,18.58" style="fill:none;fill-rule:nonzero;stroke:rgb(200,200,200);stroke-width:1px;"/>
        </g>
        <g transform="matrix(0.920064,-0.391767,-0.391767,-0.920064,325.181,426.527)">
            <path d="M-5.485,26.884L131.759,26.884" style="fill:none;fill-rule:nonzero;stroke:rgb(200,200,200);stroke-width:1px;"/>
        </g>
        <g transform="matrix(0.824432,0.565961,0.565961,-0.824432,338.816,317.632)">
            <path d="M-11.911,-38.396L123.772,-38.396" style="fill:none;fill-rule:nonzero;stroke:rgb(200,200,200);stroke-width:1px;"/>
        </g>
        <g transform="matrix(0.907087,0.420943,0.420943,-0.907087,324.85,312.98)">
            <path d="M-6.665,-30.195L136.801,-30.196" style="fill:none;fill-rule:nonzero;stroke:rgb(200,200,200);stroke-width:1px;"/>
        </g>
        <g transform="matrix(0.147862,0.989008,0.989008,-0.147862,427.347,353.977)">
            <path d="M-58.916,-68.379L79.362,-68.379" style="fill:none;fill-rule:nonzero;stroke:rgb(200,200,200);stroke-width:1px;"/>
        </g>
        <g transform="matrix(0.413718,-0.910405,-0.910405,-0.413718,423.361,425.484)">
            <path d="M-41.02,63.698L98.913,63.698" style="fill:none;fill-rule:nonzero;stroke:rgb(200,200,200);stroke-width:1px;"/>
        </g>
        <g transform="matrix(-0.415519,0.909585,0.909585,0.415519,408.353,421.145)">
            <path d="M-101.252,-65.063L41.808,-65.063" style="fill:none;fill-rule:nonzero;stroke:rgb(200,200,200);stroke-width:1px;"/>
        </g>
        <g transform="matrix(0.512092,0.858931,0.858931,-0.512092,406.996,307.12)">
            <path d="M-34.249,-60.293L106.142,-60.293" style="fill:none;fill-rule:nonzero;stroke:rgb(200,200,200);stroke-width:1px;"/>
        </g>
        <g transform="matrix(1,0,0,1,435.815,358.911)">
            <path d="M0,26.803C-7.389,63.752 -43.471,87.808 -80.42,80.42C-117.378,73.03 -141.425,36.949 -134.037,-0C-126.646,-36.958 -90.565,-61.005 -53.617,-53.617C-16.659,-46.226 7.388,-10.145 0,26.803M-148.059,-2.804C-156.992,41.882 -127.908,85.5 -83.224,94.442C-38.538,103.375 5.08,74.292 14.022,29.607C22.955,-15.079 -6.128,-58.697 -50.813,-67.639C-95.499,-76.572 -139.117,-47.488 -148.059,-2.804" style="fill:rgb(26,46,53);fill-rule:nonzero;"/>
        </g>
        <g transform="matrix(1,0,0,1,293.438,364.414)">
            <path d="M0,-16.451L-3.541,1.061C-3.833,2.51 -5.245,3.447 -6.694,3.154C-8.143,2.861 -9.08,1.449 -8.787,0L-5.247,-17.512C-4.954,-18.961 -3.542,-19.898 -2.093,-19.605C-0.644,-19.312 0.293,-17.9 0,-16.451" style="fill:rgb(26,46,53);fill-rule:nonzero;"/>
        </g>
        <g transform="matrix(1,0,0,1,289.655,393.67)">
            <path d="M0,-18.465L2.662,-0.798C2.883,0.664 1.876,2.027 0.415,2.248C-1.047,2.468 -2.41,1.461 -2.631,-0L-5.293,-17.667C-5.514,-19.129 -4.507,-20.492 -3.046,-20.713C-1.584,-20.933 -0.22,-19.927 0,-18.465" style="fill:rgb(26,46,53);fill-rule:nonzero;"/>
        </g>
        <g transform="matrix(1,0,0,1,295.417,420.35)">
            <path d="M0,-18.251L8.544,-2.56C9.251,-1.262 8.772,0.364 7.474,1.071C6.176,1.777 4.55,1.298 3.843,0L-4.701,-15.691C-5.408,-16.989 -4.929,-18.615 -3.631,-19.322C-2.332,-20.028 -0.707,-19.549 0,-18.251" style="fill:rgb(26,46,53);fill-rule:nonzero;"/>
        </g>
        <g transform="matrix(1,0,0,1,310.03,441.236)">
            <path d="M0,-15.836L13.396,-4.014C14.504,-3.036 14.61,-1.344 13.632,-0.236C12.653,0.872 10.962,0.978 9.854,-0L-3.542,-11.822C-4.65,-12.801 -4.756,-14.492 -3.778,-15.6C-2.8,-16.709 -1.108,-16.814 0,-15.836" style="fill:rgb(26,46,53);fill-rule:nonzero;"/>
        </g>
        <g transform="matrix(1,0,0,1,331.731,453.809)">
            <path d="M0,-11.511L16.631,-4.983C18.007,-4.443 18.685,-2.89 18.145,-1.514C17.605,-0.138 16.052,0.54 14.676,0L-1.956,-6.528C-3.332,-7.068 -4.009,-8.621 -3.469,-9.997C-2.929,-11.373 -1.376,-12.051 0,-11.511" style="fill:rgb(26,46,53);fill-rule:nonzero;"/>
        </g>
        <g transform="matrix(1,0,0,1,357.903,456.551)">
            <path d="M0,-5.797L17.861,-5.351C19.339,-5.314 20.507,-4.087 20.47,-2.609C20.433,-1.131 19.205,0.037 17.727,0L-0.134,-0.446C-1.611,-0.483 -2.779,-1.71 -2.742,-3.188C-2.706,-4.666 -1.478,-5.834 0,-5.797" style="fill:rgb(26,46,53);fill-rule:nonzero;"/>
        </g>
        <g transform="matrix(1,0,0,1,385.388,449.134)">
            <path d="M0,0.616L16.936,-5.074C18.338,-5.545 19.855,-4.79 20.326,-3.389C20.797,-1.988 20.042,-0.47 18.641,-0L1.705,5.69C0.304,6.161 -1.214,5.407 -1.685,4.006C-2.155,2.604 -1.401,1.087 0,0.616" style="fill:rgb(26,46,53);fill-rule:nonzero;"/>
        </g>
        <g transform="matrix(1,0,0,1,410.873,432.451)">
            <path d="M0,6.954L13.969,-4.185C15.125,-5.107 16.809,-4.917 17.73,-3.761C18.652,-2.606 18.462,-0.922 17.306,0L3.337,11.139C2.182,12.061 0.498,11.871 -0.424,10.715C-1.345,9.56 -1.156,7.876 0,6.954" style="fill:rgb(26,46,53);fill-rule:nonzero;"/>
        </g>
        <g transform="matrix(1,0,0,1,431.282,408.514)">
            <path d="M0,12.454L9.317,-2.791C10.087,-4.053 11.735,-4.45 12.996,-3.679C14.257,-2.909 14.655,-1.261 13.884,-0L4.568,15.245C3.797,16.507 2.15,16.904 0.888,16.134C-0.373,15.363 -0.771,13.715 0,12.454" style="fill:rgb(26,46,53);fill-rule:nonzero;"/>
        </g>
        <g transform="matrix(1,0,0,1,444.155,380.211)">
            <path d="M0,16.451L3.541,-1.061C3.833,-2.51 5.245,-3.447 6.694,-3.154C8.143,-2.861 9.08,-1.449 8.787,0L5.247,17.512C4.954,18.961 3.542,19.898 2.093,19.605C0.644,19.312 -0.293,17.9 0,16.451" style="fill:rgb(26,46,53);fill-rule:nonzero;"/>
        </g>
        <g transform="matrix(1,0,0,1,447.938,350.954)">
            <path d="M0,18.465L-2.663,0.798C-2.883,-0.664 -1.876,-2.027 -0.415,-2.247C1.047,-2.468 2.41,-1.461 2.631,0L5.293,17.667C5.513,19.129 4.507,20.493 3.046,20.713C1.584,20.933 0.22,19.927 0,18.465" style="fill:rgb(26,46,53);fill-rule:nonzero;"/>
        </g>
        <g transform="matrix(1,0,0,1,442.176,324.274)">
            <path d="M0,18.252L-8.544,2.561C-9.251,1.263 -8.772,-0.363 -7.474,-1.07C-6.176,-1.777 -4.55,-1.297 -3.843,0.001L4.701,15.692C5.408,16.99 4.929,18.616 3.631,19.322C2.332,20.029 0.707,19.55 0,18.252" style="fill:rgb(26,46,53);fill-rule:nonzero;"/>
        </g>
        <g transform="matrix(1,0,0,1,427.563,303.389)">
            <path d="M0,15.836L-13.396,4.014C-14.504,3.036 -14.61,1.344 -13.632,0.236C-12.653,-0.872 -10.962,-0.978 -9.854,0L3.542,11.822C4.65,12.801 4.756,14.492 3.778,15.6C2.8,16.708 1.108,16.814 0,15.836" style="fill:rgb(26,46,53);fill-rule:nonzero;"/>
        </g>
        <g transform="matrix(1,0,0,1,405.862,290.816)">
            <path d="M0,11.511L-16.631,4.983C-18.007,4.443 -18.685,2.89 -18.145,1.514C-17.605,0.138 -16.052,-0.54 -14.676,0L1.956,6.528C3.332,7.068 4.009,8.621 3.469,9.997C2.929,11.373 1.376,12.051 0,11.511" style="fill:rgb(26,46,53);fill-rule:nonzero;"/>
        </g>
        <g transform="matrix(1,0,0,1,379.69,288.074)">
            <path d="M0,5.797L-17.861,5.351C-19.339,5.314 -20.507,4.086 -20.47,2.609C-20.433,1.131 -19.205,-0.037 -17.727,0L0.134,0.446C1.611,0.483 2.779,1.71 2.742,3.188C2.706,4.666 1.478,5.834 0,5.797" style="fill:rgb(26,46,53);fill-rule:nonzero;"/>
        </g>
        <g transform="matrix(1,0,0,1,352.205,295.491)">
            <path d="M0,-0.616L-16.936,5.074C-18.338,5.545 -19.855,4.79 -20.326,3.389C-20.797,1.988 -20.042,0.47 -18.641,0L-1.705,-5.69C-0.304,-6.161 1.214,-5.407 1.685,-4.006C2.155,-2.604 1.401,-1.087 0,-0.616" style="fill:rgb(26,46,53);fill-rule:nonzero;"/>
        </g>
        <g transform="matrix(1,0,0,1,326.72,312.174)">
            <path d="M0,-6.954L-13.969,4.185C-15.125,5.107 -16.809,4.917 -17.73,3.761C-18.652,2.606 -18.462,0.922 -17.306,-0L-3.337,-11.139C-2.182,-12.061 -0.498,-11.871 0.424,-10.715C1.345,-9.56 1.156,-7.876 0,-6.954" style="fill:rgb(26,46,53);fill-rule:nonzero;"/>
        </g>
        <g transform="matrix(1,0,0,1,306.311,336.111)">
            <path d="M0,-12.454L-9.317,2.791C-10.087,4.053 -11.735,4.45 -12.996,3.679C-14.257,2.909 -14.655,1.261 -13.884,0L-4.568,-15.245C-3.797,-16.507 -2.15,-16.904 -0.888,-16.133C0.373,-15.363 0.771,-13.715 0,-12.454" style="fill:rgb(26,46,53);fill-rule:nonzero;"/>
        </g>
        <g transform="matrix(-0.166571,-0.986029,-0.986029,0.166571,232.38,206.427)">
            <rect x="-29.238" y="24.713" width="56.661" height="7.731" style="fill:rgb(26,46,53);"/>
        </g>
        <g transform="matrix(-0.602874,0.797836,0.797836,0.602874,348.537,230.247)">
            <rect x="-20.639" y="-10.273" width="23.071" height="5.389" style="fill:rgb(26,46,53);"/>
        </g>
        <g transform="matrix(-0.172842,-0.984949,-0.984949,0.172842,358.224,228.275)">
            <rect x="-14.774" y="12.407" width="31.34" height="7.32" style="fill:rgb(200,200,200);"/>
        </g>
        <g transform="matrix(1,0,0,1,228.968,243.32)">
            <path d="M0,106.735L-99.8,86.975L-96.775,77.796L-10.04,94.619L112.305,0L115.824,14.975L0,106.735Z" style="fill:rgb(255,200,0);fill-rule:nonzero;"/>
        </g>
        <g transform="matrix(-0.169155,-0.985589,-0.985589,0.169155,270.219,272.648)">
            <path d="M-59.313,59.664L50.19,59.664L50.296,49.999L-59.207,50L-59.313,59.664Z" style="fill:rgb(255,200,0);fill-rule:nonzero;"/>
        </g>
        <g transform="matrix(0.366931,-0.930248,-0.930248,-0.366931,270.389,325.931)">
            <path d="M-20.155,39.279L57.86,39.279L57.719,29.616L-20.297,29.616L-20.155,39.279Z" style="fill:rgb(255,200,0);fill-rule:nonzero;"/>
        </g>
        <g transform="matrix(-0.172831,-0.984951,-0.984951,0.172831,368.311,257.014)">
            <rect x="-19.504" y="16.38" width="41.376" height="9.663" style="fill:rgb(255,200,0);"/>
        </g>
        <g transform="matrix(-0.193619,-0.981077,-0.981077,0.193619,407.369,304.172)">
            <rect x="-58.914" y="48.425" width="102.688" height="4.832" style="fill:rgb(255,200,0);"/>
        </g>
        <g transform="matrix(0.198153,-0.980171,-0.980171,-0.198153,360.024,198.324)">
            <path d="M-9.344,-7.644C-14.608,-7.644 -18.877,-3.376 -18.877,1.889C-18.876,7.154 -14.608,11.422 -9.344,11.422C-4.078,11.421 0.189,7.153 0.189,1.889C0.189,-3.376 -4.079,-7.644 -9.344,-7.644" style="fill:rgb(26,46,53);fill-rule:nonzero;"/>
        </g>
        <g transform="matrix(1,0,0,1,371.494,202.533)">
            <path d="M0,19.484L-16.594,10.439C-19.477,8.868 -20.54,5.257 -18.969,2.375C-17.398,-0.508 -13.787,-1.571 -10.905,0.001L5.69,9.046C8.572,10.617 9.635,14.227 8.064,17.11C6.493,19.992 2.883,21.055 0,19.484" style="fill:rgb(43,69,78);fill-rule:nonzero;"/>
        </g>
        <g transform="matrix(0.308102,-0.951353,-0.951353,-0.308102,376.996,214.717)">
            <path d="M-2.972,-2.161C-5.029,-2.161 -6.697,-0.763 -6.696,0.962C-6.697,2.688 -5.029,4.086 -2.972,4.087C-0.915,4.087 0.753,2.689 0.753,0.963C0.754,-0.762 -0.915,-2.161 -2.972,-2.161" style="fill:rgb(55,90,100);fill-rule:nonzero;"/>
        </g>
        <g transform="matrix(-0.988525,0.151055,0.151055,0.988525,217.054,272.545)">
            <path d="M-125.889,-1.762L2.991,-1.762L0.133,-9.563L-128.746,-9.563L-125.889,-1.762Z" style="fill:rgb(255,200,0);fill-rule:nonzero;"/>
        </g>
        <g opacity="0.3">
            <g transform="matrix(1,0,0,1,329.807,326.062)">
                <path d="M0,-70.067C-28.823,-45.206 -59.345,-21.603 -90.685,0C-61.873,-24.875 -31.331,-48.452 0,-70.067" style="fill:white;fill-rule:nonzero;"/>
            </g>
        </g>
        <g transform="matrix(1,0,0,1,246.321,288.631)">
            <path d="M0,-8.715L-2.137,-3.291L-21.636,-0.051C-21.942,0 -22.246,-0.011 -22.54,-0.07C-23.53,-0.271 -24.34,-1.057 -24.515,-2.112C-24.739,-3.474 -23.817,-4.756 -22.455,-4.981L0,-8.715Z" style="fill:rgb(26,46,53);fill-rule:nonzero;"/>
        </g>
        <g transform="matrix(1,0,0,1,128.895,266.94)">
            <path d="M0,60.676C-0.531,60.569 -1.031,60.289 -1.409,59.843C-2.302,58.791 -2.173,57.214 -1.12,56.32L64.355,0.747C65.408,-0.147 66.984,-0.019 67.878,1.036C68.772,2.089 68.643,3.666 67.59,4.56L2.115,60.132C1.507,60.648 0.725,60.823 0,60.676" style="fill:rgb(200,200,200);fill-rule:nonzero;"/>
        </g>
        <g transform="matrix(1,0,0,1,222.834,266.939)">
            <path d="M0,21.691C-0.261,21.638 -0.52,21.541 -0.763,21.399L-29.225,4.814C-30.418,4.119 -30.822,2.588 -30.126,1.396C-29.432,0.203 -27.9,-0.206 -26.708,0.495L1.754,17.08C2.947,17.774 3.351,19.306 2.655,20.498C2.103,21.448 1.02,21.897 0,21.691" style="fill:rgb(220,220,220);fill-rule:nonzero;"/>
        </g>
        <g transform="matrix(0.1961,-0.980584,-0.980584,-0.1961,135.551,313.255)">
            <path d="M-11.661,-9.56C-18.229,-9.56 -23.553,-4.236 -23.553,2.332C-23.553,8.901 -18.229,14.224 -11.661,14.224C-5.092,14.224 0.231,8.9 0.231,2.332C0.231,-4.236 -5.093,-9.56 -11.661,-9.56" style="fill:rgb(43,69,78);fill-rule:nonzero;"/>
        </g>
        <g transform="matrix(0.1961,-0.980584,-0.980584,-0.1961,373.471,360.838)">
            <path d="M-11.661,-9.56C-18.229,-9.56 -23.553,-4.236 -23.553,2.332C-23.553,8.901 -18.229,14.224 -11.661,14.224C-5.092,14.224 0.231,8.9 0.231,2.332C0.231,-4.236 -5.093,-9.56 -11.661,-9.56" style="fill:rgb(43,69,78);fill-rule:nonzero;"/>
        </g>
        <g transform="matrix(1,0,0,1,183.002,198.841)">
            <path d="M0,-17.282L19.152,0L34.543,-13.087" style="fill:none;fill-rule:nonzero;stroke:rgb(26,46,53);stroke-width:1px;"/>
        </g>
        <g transform="matrix(1,0,0,1,172.946,181.824)">
            <path d="M0,-4.008C5.461,0.293 18.738,4.407 31.722,4.378C43.529,4.352 59.026,9.609 59.849,5.497C60.168,3.901 51.694,-0.022 36.095,-3.141C20.735,-6.213 4.155,-13.617 -3.227,-12.182C-6.407,-11.565 -2.71,-6.143 0,-4.008" style="fill:rgb(55,90,100);fill-rule:nonzero;"/>
        </g>
        <g transform="matrix(-0.86776,-0.496983,-0.496983,0.86776,232.625,347.598)">
            <path d="M5.924,34.626L11.408,34.626L9.214,-1.576L3.731,-1.577L5.924,34.626Z" style="fill:rgb(168,168,168);fill-rule:nonzero;"/>
        </g>
        <g transform="matrix(0.897826,0.44035,0.44035,-0.897826,200.189,364.826)">
            <rect x="0.31" y="-5.695" width="24.234" height="7.03" style="fill:rgb(26,46,53);"/>
        </g>
        <g transform="matrix(1,0,0,1,223.576,321.503)">
            <path d="M0,41.53C-11.476,39.21 -18.888,28.03 -16.57,16.563C-14.251,5.096 -3.079,-2.327 8.398,-0.007C19.865,2.312 27.276,13.492 24.958,24.959C22.64,36.425 11.467,43.848 0,41.53M30.721,26.986C30.428,26.741 30.335,26.379 30.399,26.059C30.464,25.739 30.691,25.441 31.056,25.329C31.422,25.217 31.647,24.929 31.712,24.609C31.786,24.242 31.651,23.842 31.286,23.612C30.921,23.381 30.788,22.972 30.86,22.614C30.918,22.332 31.108,22.067 31.41,21.932C31.721,21.799 31.903,21.532 31.96,21.249C32.042,20.844 31.867,20.397 31.429,20.191C31,19.987 30.816,19.538 30.898,19.133C30.947,18.889 31.102,18.655 31.348,18.509C31.593,18.363 31.736,18.137 31.786,17.892C31.877,17.44 31.654,16.944 31.148,16.783C30.651,16.624 30.418,16.126 30.508,15.684C30.549,15.476 30.659,15.273 30.846,15.125C31.488,14.618 31.233,13.596 30.443,13.436L30.433,13.434C29.876,13.331 29.572,12.8 29.671,12.31C29.705,12.141 29.798,11.973 29.934,11.834C30.468,11.276 30.17,10.373 29.455,10.228C29.408,10.219 29.361,10.209 29.312,10.209C28.701,10.174 28.328,9.598 28.434,9.071C28.463,8.93 28.52,8.795 28.612,8.676C29.054,8.089 28.707,7.284 28.048,7.151C27.964,7.134 27.875,7.135 27.787,7.137C27.14,7.183 26.673,6.589 26.793,5.995C26.812,5.901 26.842,5.8 26.901,5.704C27.245,5.117 26.868,4.413 26.274,4.293C26.152,4.269 26.024,4.272 25.892,4.294C25.219,4.423 24.646,3.817 24.775,3.177C24.789,3.111 24.812,3.047 24.834,2.983C25.082,2.386 24.695,1.779 24.14,1.667C23.989,1.636 23.831,1.644 23.663,1.698C22.96,1.928 22.291,1.313 22.434,0.607L22.449,0.531C22.605,-0.045 22.219,-0.564 21.711,-0.666C21.523,-0.705 21.314,-0.688 21.118,-0.591C20.921,-0.493 20.712,-0.477 20.524,-0.515C20.053,-0.61 19.693,-1.055 19.761,-1.59C19.844,-2.142 19.472,-2.579 19.01,-2.673C18.784,-2.718 18.532,-2.681 18.307,-2.54C18.083,-2.4 17.84,-2.36 17.614,-2.406C17.181,-2.494 16.826,-2.869 16.838,-3.367C16.852,-3.873 16.495,-4.24 16.071,-4.325C15.808,-4.378 15.521,-4.319 15.276,-4.123C15.04,-3.926 14.744,-3.868 14.481,-3.922C14.095,-4 13.766,-4.311 13.72,-4.761C13.664,-5.214 13.335,-5.525 12.949,-5.603C12.648,-5.664 12.318,-5.584 12.069,-5.32C11.544,-4.76 10.616,-5.017 10.442,-5.757C10.356,-6.157 10.044,-6.406 9.705,-6.475C9.357,-6.545 8.982,-6.435 8.738,-6.102C8.496,-5.778 8.119,-5.658 7.771,-5.729C7.47,-5.79 7.197,-5.992 7.07,-6.331C6.942,-6.671 6.67,-6.873 6.368,-6.934C5.982,-7.012 5.558,-6.852 5.341,-6.455C5.123,-6.058 4.69,-5.901 4.304,-5.979C4.04,-6.032 3.79,-6.201 3.649,-6.474C3.508,-6.747 3.258,-6.916 2.995,-6.969C2.571,-7.055 2.1,-6.856 1.916,-6.383C1.734,-5.921 1.261,-5.712 0.828,-5.8C0.602,-5.846 0.393,-5.976 0.241,-6.193C0.089,-6.41 -0.12,-6.54 -0.346,-6.586C-0.817,-6.681 -1.329,-6.422 -1.468,-5.882C-1.603,-5.36 -2.118,-5.092 -2.589,-5.187C-2.777,-5.225 -2.963,-5.322 -3.106,-5.488C-3.634,-6.075 -4.59,-5.807 -4.742,-5.054L-4.759,-4.969C-4.839,-4.378 -5.386,-4.048 -5.904,-4.153C-6.055,-4.183 -6.207,-4.253 -6.341,-4.368C-6.909,-4.855 -7.759,-4.528 -7.898,-3.84C-7.911,-3.774 -7.915,-3.707 -7.919,-3.639C-7.92,-3.002 -8.505,-2.581 -9.061,-2.694C-9.183,-2.718 -9.29,-2.769 -9.403,-2.841C-9.988,-3.244 -10.738,-2.876 -10.866,-2.245C-10.885,-2.151 -10.897,-2.046 -10.88,-1.935C-10.8,-1.262 -11.395,-0.745 -12.007,-0.869C-12.091,-0.886 -12.172,-0.922 -12.253,-0.958C-12.84,-1.253 -13.504,-0.878 -13.622,-0.294C-13.649,-0.162 -13.64,-0.013 -13.602,0.141C-13.429,0.833 -14.044,1.453 -14.722,1.316C-14.759,1.309 -14.807,1.299 -14.852,1.28C-15.437,1.074 -15.995,1.461 -16.104,1.997C-16.138,2.167 -16.127,2.355 -16.056,2.536C-15.767,3.241 -16.385,3.969 -17.129,3.818L-17.138,3.816C-17.701,3.693 -18.18,4.076 -18.279,4.566C-18.321,4.773 -18.29,5.005 -18.175,5.214C-18.061,5.423 -18.039,5.653 -18.081,5.86C-18.17,6.303 -18.578,6.671 -19.097,6.625C-19.617,6.579 -20.027,6.956 -20.116,7.399C-20.166,7.644 -20.121,7.907 -19.952,8.137C-19.783,8.368 -19.731,8.643 -19.78,8.887C-19.862,9.292 -20.206,9.635 -20.68,9.656C-21.165,9.676 -21.499,10.02 -21.581,10.425C-21.638,10.707 -21.574,11.024 -21.339,11.267C-21.114,11.509 -21.039,11.818 -21.098,12.11C-21.17,12.467 -21.452,12.793 -21.878,12.863C-22.304,12.934 -22.583,13.25 -22.657,13.617C-22.722,13.937 -22.627,14.29 -22.324,14.537C-22.03,14.783 -21.937,15.144 -22.002,15.464C-22.067,15.785 -22.293,16.082 -22.659,16.194C-23.034,16.304 -23.259,16.592 -23.323,16.912C-23.398,17.279 -23.263,17.679 -22.898,17.91C-22.533,18.14 -22.4,18.549 -22.474,18.916C-22.531,19.199 -22.722,19.464 -23.024,19.599C-23.335,19.732 -23.514,19.99 -23.571,20.272C-23.653,20.677 -23.479,21.124 -23.041,21.33C-22.612,21.534 -22.428,21.983 -22.51,22.388C-22.559,22.633 -22.714,22.866 -22.959,23.012C-23.205,23.159 -23.35,23.394 -23.4,23.639C-23.489,24.081 -23.257,24.579 -22.76,24.738C-22.263,24.898 -22.03,25.395 -22.121,25.847C-22.163,26.054 -22.271,26.248 -22.458,26.397C-23.099,26.904 -22.845,27.925 -22.054,28.085L-22.045,28.087C-21.488,28.19 -21.184,28.722 -21.285,29.221C-21.319,29.39 -21.411,29.558 -21.547,29.697C-22.08,30.246 -21.775,31.16 -21.059,31.305C-21.012,31.314 -20.974,31.322 -20.925,31.322C-20.315,31.357 -19.932,31.934 -20.041,32.471C-20.067,32.603 -20.124,32.738 -20.217,32.857C-20.666,33.432 -20.31,34.239 -19.651,34.372C-19.576,34.387 -19.487,34.386 -19.398,34.384C-18.743,34.34 -18.286,34.942 -18.404,35.526C-18.423,35.62 -18.454,35.722 -18.512,35.818C-18.858,36.414 -18.481,37.117 -17.879,37.239C-17.766,37.262 -17.638,37.259 -17.506,37.236C-16.833,37.108 -16.26,37.714 -16.389,38.354C-16.402,38.42 -16.425,38.484 -16.448,38.548C-16.694,39.135 -16.307,39.742 -15.761,39.853C-15.611,39.883 -15.443,39.878 -15.275,39.823C-14.563,39.595 -13.895,40.22 -14.038,40.926L-14.051,40.992C-14.216,41.566 -13.831,42.085 -13.323,42.188C-13.135,42.226 -12.925,42.209 -12.729,42.112C-12.533,42.014 -12.324,41.998 -12.136,42.036C-11.665,42.131 -11.295,42.578 -11.375,43.12C-11.455,43.663 -11.083,44.101 -10.613,44.196C-10.387,44.241 -10.144,44.203 -9.919,44.062C-9.695,43.921 -9.452,43.882 -9.226,43.927C-8.793,44.015 -8.438,44.391 -8.452,44.897C-8.464,45.395 -8.099,45.772 -7.676,45.858C-7.412,45.911 -7.126,45.851 -6.89,45.654C-6.654,45.457 -6.358,45.399 -6.094,45.452C-5.708,45.53 -5.37,45.844 -5.322,46.285C-5.278,46.744 -4.947,47.046 -4.561,47.124C-4.26,47.185 -3.93,47.105 -3.681,46.842C-3.433,46.588 -3.102,46.498 -2.791,46.561C-2.452,46.63 -2.151,46.886 -2.054,47.278C-1.959,47.68 -1.658,47.937 -1.31,48.007C-0.971,48.076 -0.584,47.958 -0.35,47.623C-0.108,47.299 0.269,47.18 0.608,47.248C0.918,47.311 1.189,47.523 1.319,47.853C1.446,48.192 1.719,48.394 2.02,48.455C2.406,48.533 2.828,48.383 3.057,47.979C3.272,47.591 3.697,47.432 4.083,47.51C4.346,47.563 4.596,47.731 4.737,48.005C4.887,48.28 5.128,48.446 5.392,48.5C5.815,48.585 6.288,48.377 6.47,47.914C6.654,47.442 7.127,47.234 7.56,47.321C7.786,47.367 7.995,47.497 8.147,47.714C8.299,47.931 8.518,48.063 8.743,48.109C9.205,48.202 9.718,47.943 9.854,47.413C10.001,46.884 10.506,46.613 10.977,46.709C11.165,46.747 11.351,46.843 11.494,47.009C12.022,47.596 12.989,47.321 13.143,46.559L13.157,46.493C13.226,45.909 13.784,45.571 14.292,45.674C14.452,45.706 14.595,45.774 14.729,45.89C15.297,46.377 16.147,46.049 16.284,45.371C16.297,45.305 16.301,45.237 16.305,45.169C16.306,44.533 16.891,44.112 17.447,44.224C17.569,44.249 17.676,44.3 17.789,44.372C18.376,44.765 19.127,44.397 19.254,43.767C19.273,43.673 19.285,43.567 19.268,43.456C19.187,42.793 19.792,42.268 20.404,42.392C20.48,42.407 20.56,42.443 20.641,42.479C21.238,42.776 21.894,42.39 22.01,41.815C22.037,41.683 22.037,41.536 21.998,41.391C21.817,40.688 22.43,40.077 23.108,40.214C23.146,40.222 23.193,40.232 23.238,40.251C23.825,40.448 24.384,40.061 24.492,39.524C24.525,39.364 24.514,39.176 24.442,38.995C24.156,38.28 24.773,37.553 25.517,37.703L25.526,37.705C26.089,37.828 26.569,37.445 26.668,36.956C26.709,36.748 26.678,36.517 26.563,36.307C26.449,36.098 26.425,35.878 26.467,35.67C26.558,35.219 26.966,34.85 27.486,34.897C28.015,34.945 28.413,34.574 28.503,34.132C28.552,33.887 28.507,33.623 28.34,33.384C28.171,33.154 28.119,32.879 28.169,32.634C28.25,32.229 28.594,31.887 29.069,31.865C29.553,31.846 29.887,31.501 29.969,31.097C30.026,30.814 29.961,30.507 29.726,30.264C29.5,30.022 29.427,29.703 29.484,29.421C29.559,29.054 29.84,28.729 30.266,28.658C30.692,28.587 30.971,28.271 31.045,27.904C31.11,27.584 31.015,27.232 30.721,26.986" style="fill:rgb(168,168,168);fill-rule:nonzero;"/>
        </g>
        <g transform="matrix(-0.980188,-0.198068,-0.198068,0.980188,232.665,319.684)">
            <rect x="-1.595" y="0.16" width="3.84" height="22.28" style="fill:rgb(168,168,168);"/>
        </g>
        <g transform="matrix(-0.853279,-0.521455,-0.521455,0.853279,215.023,325.015)">
            <rect x="-19.645" y="5.526" width="22.279" height="3.841" style="fill:rgb(168,168,168);"/>
        </g>
        <g transform="matrix(-0.623679,-0.781681,-0.781681,0.623679,230.48,349.162)">
            <rect x="5.593" y="-2.693" width="3.836" height="22.278" style="fill:rgb(168,168,168);"/>
        </g>
        <g transform="matrix(1,0,0,1,232.062,344.316)">
            <path d="M0,15.714L-5.982,-2.091L-2.339,-3.314L4.756,17.804L1.113,19.028L0,15.714Z" style="fill:rgb(168,168,168);fill-rule:nonzero;"/>
        </g>
        <g transform="matrix(0.0247256,-0.999694,-0.999694,-0.0247256,240.404,353.112)">
            <rect x="9.264" y="-9.496" width="3.838" height="22.279" style="fill:rgb(168,168,168);"/>
        </g>
        <g transform="matrix(0.198156,-0.980171,-0.980171,-0.198156,230.278,336.319)">
            <path d="M-6.329,-5.178C-9.895,-5.177 -12.786,-2.287 -12.786,1.28C-12.786,4.846 -9.895,7.737 -6.329,7.737C-2.762,7.736 0.128,4.846 0.129,1.279C0.128,-2.287 -2.763,-5.178 -6.329,-5.178" style="fill:rgb(168,168,168);fill-rule:nonzero;"/>
        </g>
        <g transform="matrix(0.198196,-0.980162,-0.980162,-0.198196,228.937,339.5)">
            <path d="M-2.945,-2.409C-4.604,-2.409 -5.949,-1.064 -5.95,0.595C-5.95,2.255 -4.605,3.6 -2.945,3.6C-1.285,3.6 0.059,2.255 0.06,0.596C0.06,-1.064 -1.285,-2.409 -2.945,-2.409" style="fill:rgb(26,46,53);fill-rule:nonzero;"/>
        </g>
        <g transform="matrix(0.86776,0.496983,0.496983,-0.86776,254.086,314.13)">
            <path d="M-8.921,1.714L-3.438,1.714L-6.441,-33.529L-11.923,-33.53L-8.921,1.714Z" style="fill:rgb(168,168,168);fill-rule:nonzero;"/>
        </g>
        <g transform="matrix(-0.897826,-0.44035,-0.44035,0.897826,236.888,303.227)">
            <rect x="-24.543" y="-1.335" width="24.234" height="7.03" style="fill:rgb(26,46,53);"/>
        </g>
        <g transform="matrix(1,0,0,1,274.676,317.273)">
            <path d="M0,-179.082C0,-179.082 -5.293,-166.917 -7.056,-161.868C-7.056,-161.868 8.043,-97.208 4.295,-81.85C-0.081,-63.916 -44.193,29.91 -44.193,29.91L-84.677,9.733C-84.677,9.733 -74.676,-18.8 -65.012,-41.956C-58.145,-58.413 -45.359,-84.772 -44.591,-87.888C-40.853,-103.056 -59.447,-168.079 -58.444,-178.833C-56.193,-202.984 -36.751,-208.992 -36.751,-208.992L0,-179.082Z" style="fill:rgb(195,99,88);fill-rule:nonzero;"/>
        </g>
        <g transform="matrix(1,0,0,1,239.247,292.774)">
            <path d="M0,89.997C-2.598,89.631 -54.577,60.894 -56.224,58.139C-56.868,57.103 -56.128,49.576 -50.827,38.191C-50.77,38.072 -50.714,37.954 -50.658,37.836C-49.57,35.487 -36.508,-0.377 -36.508,-0.377L8.129,18.979L-9.387,57.983L-9.752,58.671C-9.752,58.671 9.129,81.788 10.623,85.009C12.1,88.211 2.594,90.374 0,89.997" style="fill:rgb(236,236,236);fill-rule:nonzero;"/>
        </g>
        <g transform="matrix(1,0,0,1,251.92,329.13)">
            <path d="M0,56.392C-2.741,56.137 -71.612,25.88 -73.474,23.075C-74.201,22.021 -63.351,-0.14 -63.298,-0.266L-20.336,18.256L-20.685,18.995C-20.685,18.995 0.244,42.282 1.969,45.583C3.676,48.866 2.737,56.658 0,56.392" style="fill:rgb(43,69,78);fill-rule:nonzero;"/>
        </g>
        <g transform="matrix(0.401627,-0.915803,-0.915803,-0.401627,245.451,341.733)">
            <path d="M-34.605,-22.68C-34.236,-10.094 -33.934,40.702 -34.526,53.171C-34.531,53.273 -34.6,53.273 -34.605,53.172C-35.244,40.706 -35.133,-10.092 -34.811,-22.68C-34.804,-22.945 -34.613,-22.945 -34.605,-22.68" style="fill:white;fill-rule:nonzero;"/>
        </g>
        <g transform="matrix(0.171512,-0.985182,-0.985182,-0.171512,230.695,340.988)">
            <path d="M-8.064,-5.647C-5.963,-1.067 -5.226,4.994 -7.729,9.524C-7.826,9.699 -8.074,9.558 -8.064,9.39C-7.759,4.276 -7.909,-0.391 -8.666,-5.475C-8.72,-5.834 -8.214,-5.975 -8.064,-5.647" style="fill:white;fill-rule:nonzero;"/>
        </g>
        <g transform="matrix(0.171512,-0.985182,-0.985182,-0.171512,233.087,344.409)">
            <path d="M-8.064,-5.648C-5.963,-1.068 -5.227,4.993 -7.729,9.523C-7.826,9.698 -8.074,9.557 -8.064,9.389C-7.759,4.275 -7.909,-0.392 -8.666,-5.476C-8.72,-5.835 -8.214,-5.975 -8.064,-5.648" style="fill:white;fill-rule:nonzero;"/>
        </g>
        <g transform="matrix(0.171566,-0.985173,-0.985173,-0.171566,235.48,347.829)">
            <path d="M-8.065,-5.648C-5.963,-1.068 -5.227,4.993 -7.731,9.523C-7.827,9.699 -8.076,9.558 -8.065,9.39C-7.76,4.275 -7.91,-0.392 -8.667,-5.476C-8.72,-5.835 -8.215,-5.975 -8.065,-5.648" style="fill:white;fill-rule:nonzero;"/>
        </g>
        <g transform="matrix(0.350169,-0.936687,-0.936687,-0.350169,242.325,337.107)">
            <path d="M-39.387,-27.24C-39.982,-28.544 -44.445,-27.984 -44.746,-27C-45.047,-26.015 -39.781,55.231 -39.387,56.594C-38.994,57.957 -34.069,57.148 -33.912,55.53C-33.754,53.91 -39.387,-27.24 -39.387,-27.24" style="fill:rgb(255,200,0);fill-rule:nonzero;"/>
        </g>
        <g transform="matrix(1,0,0,1,195.212,346.948)">
            <path d="M0,-5.981C-3.848,-10.652 -11.115,-4.68 -7.26,-0.001C-3.412,4.671 3.855,-1.302 0,-5.981" style="fill:white;fill-rule:nonzero;"/>
        </g>
        <g transform="matrix(1,0,0,1,267.622,168.791)">
            <path d="M0,-13.391C0,-13.391 8.245,17.868 12.79,37.266C13.292,39.409 11.46,43.291 11.46,43.291L-38.012,47.12C-38.012,47.12 -43.902,43.77 -44.324,41.478C-49.432,13.702 -55.964,-22.128 -53.991,-31.862C-49.174,-55.64 -29.699,-60.511 -29.699,-60.511L7.76,-30.725C7.76,-30.725 0.965,-14.339 0,-13.391" style="fill:rgb(255,200,0);fill-rule:nonzero;"/>
        </g>
        <g opacity="0.3">
            <g transform="matrix(1,0,0,1,267.622,168.791)">
                <path d="M0,-13.391C0,-13.391 8.245,17.868 12.79,37.266C13.292,39.409 11.46,43.291 11.46,43.291L-38.012,47.12C-38.012,47.12 -43.902,43.77 -44.324,41.478C-49.432,13.702 -55.964,-22.128 -53.991,-31.862C-49.174,-55.64 -29.699,-60.511 -29.699,-60.511L7.76,-30.725C7.76,-30.725 0.965,-14.339 0,-13.391" style="fill-rule:nonzero;"/>
            </g>
        </g>
        <g opacity="0.2">
            <g transform="matrix(1,0,0,1,247.679,177.302)">
                <path d="M0,4.668C-0.834,0.534 -0.574,1.838 -1.42,-2.294C-2.249,-6.344 -2.961,-10.44 -3.91,-14.463C-4.019,-14.926 -4.11,-15.309 -4.622,-15.427C-5.412,-15.61 -6.588,-15.203 -7.362,-15.084C-9.62,-14.737 -11.87,-14.339 -14.109,-13.889C-18.735,-12.959 -23.926,-11.832 -28.426,-10.41C-28.848,-10.277 -28.704,-9.609 -28.27,-9.735C-21.243,-11.762 -13.538,-13.453 -6.297,-14.516C-5.897,-14.574 -5.019,-14.823 -4.675,-14.523C-4.597,-14.454 -4.501,-13.648 -4.496,-13.62C-4.316,-12.718 -4.137,-11.815 -3.957,-10.913C-3.598,-9.107 -3.239,-7.302 -2.88,-5.497C-2.162,-1.887 -2.557,-3.71 -1.839,-0.1C-1.51,1.555 -1.181,3.21 -0.848,4.863C-0.665,5.765 -0.483,6.667 -0.301,7.569C-0.212,8.016 -0.09,8.471 -0.031,8.923C0.091,9.853 0.013,10.284 -0.685,10.943C-1.843,12.038 -3.253,12.947 -4.509,13.926C-5.93,15.032 -7.351,16.138 -8.772,17.245C-9.454,17.776 -10.259,18.654 -11.07,18.964C-11.977,19.311 -13.274,18.439 -14.092,18.082L-21.606,14.796C-22.246,14.517 -23.243,13.872 -23.746,13.371C-24.41,12.71 -28.111,-6.143 -28.318,-10.198C-28.328,-10.383 -28.774,-10.351 -28.764,-10.166C-28.544,-6.346 -25.7,11.759 -25.053,13.497C-24.503,14.974 -23.078,15.405 -21.741,15.983C-19.86,16.797 -17.979,17.611 -16.098,18.425C-15.123,18.846 -14.153,19.281 -13.171,19.686C-12.488,19.968 -11.8,20.278 -11.053,20.045C-10.414,19.847 -9.871,19.307 -9.362,18.905C-8.539,18.253 -7.712,17.606 -6.887,16.956L-2.114,13.198C-1.059,12.368 0.763,11.426 0.935,9.933C1.015,9.238 0.774,8.498 0.637,7.825C0.423,6.773 0.212,5.72 0,4.668" style="fill-rule:nonzero;"/>
            </g>
            <g transform="matrix(1,0,0,1,243.14,176.871)">
                <path d="M0,-12.624C-3.221,-9.436 -6.47,-6.282 -9.884,-3.299C-10.324,-2.914 -10.76,-2.52 -11.213,-2.151C-12.097,-1.433 -12.585,-1.497 -13.565,-1.956C-14.529,-2.408 -15.475,-2.901 -16.436,-3.358C-18.64,-4.408 -20.858,-5.425 -23.069,-6.46C-23.233,-6.537 -23.389,-6.309 -23.223,-6.215C-20.843,-4.877 -18.467,-3.538 -16.052,-2.263C-14.406,-1.393 -12.64,0.074 -10.924,-1.322C-8.974,-2.91 -7.188,-4.772 -5.411,-6.547C-3.497,-8.458 -1.645,-10.452 0.109,-12.508C0.174,-12.584 0.075,-12.698 0,-12.624" style="fill-rule:nonzero;"/>
            </g>
            <g transform="matrix(1,0,0,1,231.427,173.305)">
                <path d="M0,-0.9C-0.152,-1.212 -0.385,-1.53 -0.743,-1.608C-1.163,-1.7 -1.549,-1.448 -1.823,-1.15C-1.948,-1.013 -1.751,-0.802 -1.624,-0.939C-1.512,-1.062 -1.391,-1.18 -1.224,-1.215C-1.152,-1.23 -1.076,-1.233 -1.005,-1.211C-0.965,-1.199 -0.898,-1.161 -0.885,-1.15C-0.826,-1.103 -0.77,-1.042 -0.719,-0.986C-0.692,-0.957 -0.665,-0.926 -0.642,-0.894C-0.664,-0.924 -0.619,-0.859 -0.616,-0.853C-0.526,-0.713 -0.439,-0.548 -0.388,-0.39C-0.299,-0.113 -0.372,0.21 -0.594,0.412C-0.725,0.53 -0.888,0.551 -1.04,0.461C-1.207,0.363 -1.305,0.19 -1.39,0.024C-1.411,-0.019 -1.486,0.007 -1.47,0.054C-1.368,0.358 -1.199,0.682 -0.85,0.741C-0.501,0.8 -0.175,0.514 -0.023,0.226C0.16,-0.12 0.172,-0.546 0,-0.9" style="fill-rule:nonzero;"/>
            </g>
        </g>
        <g opacity="0.2">
            <g transform="matrix(-0.965805,-0.25927,-0.25927,0.965805,217.065,160.165)">
                <path d="M-10.385,-52.158C-1.997,-39.585 -1.598,-23.135 -6.503,-9.188C-7.513,-5.987 -9.063,-2.644 -10.385,0.429C-8.797,-2.498 -7.038,-5.806 -5.908,-8.975C-0.377,-22.85 -0.881,-40.116 -10.385,-52.158" style="fill-rule:nonzero;"/>
            </g>
            <g transform="matrix(1,0,0,1,235.408,212.083)">
                <path d="M0,-13.242C1.485,-8.957 2.305,-4.534 2.439,0C0.948,-4.284 0.139,-8.709 0,-13.242" style="fill-rule:nonzero;"/>
            </g>
        </g>
        <g transform="matrix(1,0,0,1,310.132,168.738)">
            <path d="M0,-59.893C-2.697,-38.795 -5.766,-14.765 -2.235,-10.008C6.217,1.374 22.952,12.812 34.226,19.724C37.901,21.977 53.269,-2.861 49.607,-5.659C46.884,-7.739 21.387,-24.004 20.492,-25.772C19.769,-27.198 18.004,-48.73 14.009,-65.136C9.933,-81.87 1.677,-73.007 0,-59.893" style="fill:rgb(195,99,88);fill-rule:nonzero;"/>
        </g>
        <g transform="matrix(1,0,0,1,360.602,207.53)">
            <path d="M0,-12.04C-1.844,-12.514 -2.105,-11.55 -0.051,-8.862C2.022,-6.138 12.417,2.723 9.007,6.093C5.59,9.481 -8.914,-3.3 -11.992,-8.039C-15.082,-12.771 -18.39,-21.521 -18.39,-21.521C-15.067,-19.603 -6.566,-15.719 0,-12.04" style="fill:rgb(195,99,88);fill-rule:nonzero;"/>
        </g>
        <g transform="matrix(1,0,0,1,358.708,216.275)">
            <path d="M0,-53.947C15.25,-45.756 21.135,-40.693 26.754,-29.866C27.856,-27.742 27.426,-25.968 27.426,-25.968C30.03,-21.159 28.542,-18.486 28.542,-18.486C29.596,-13.265 27.698,-10.739 27.698,-10.739C27.698,-10.739 30.694,-5.061 27.563,-2.68C24.059,0 20.537,-8.499 15.742,-11.989C4.755,-19.983 -13.099,-28.275 -16.497,-30.266L0,-53.947Z" style="fill:rgb(195,99,88);fill-rule:nonzero;"/>
        </g>
        <g transform="matrix(1,0,0,1,368.825,205.376)">
            <path d="M0,-17.56C3.186,-15.143 6.379,-12.852 9.222,-10.015C12.341,-6.904 14.82,-3.386 17.434,0.132C17.515,0.242 17.676,0.14 17.613,0.019C13.89,-7.099 7.094,-13.777 0.108,-17.707C-0.061,-17.802 -0.16,-17.682 0,-17.56" style="fill:rgb(26,46,53);fill-rule:nonzero;"/>
        </g>
        <g transform="matrix(-0.76677,0.641922,0.641922,0.76677,390.851,191.008)">
            <path d="M7.172,-19.731C6.515,-15.889 5.404,-9.129 7.243,2.869C7.249,2.908 7.184,2.931 7.172,2.889C4.942,-4.742 5.015,-12.13 6.99,-19.762C7.051,-19.999 7.215,-19.986 7.172,-19.731" style="fill:rgb(26,46,53);fill-rule:nonzero;"/>
        </g>
        <g transform="matrix(-0.770363,0.637606,0.637606,0.770363,388.98,184.887)">
            <path d="M5.601,-15.417C4.696,-8.847 4.957,-4.59 5.673,2.331C5.678,2.369 5.611,2.387 5.601,2.344C3.961,-5.435 4.248,-8.443 5.38,-15.479C5.419,-15.722 5.637,-15.674 5.601,-15.417" style="fill:rgb(26,46,53);fill-rule:nonzero;"/>
        </g>
        <g transform="matrix(0.99894,-0.0460256,-0.0460256,-0.99894,305.133,138.163)">
            <path d="M-1.085,0.645L25.857,0.645C25.857,0.645 24.135,21.74 20.626,34.947C17.258,47.619 11.197,46.139 8.219,37.63C5.563,30.04 -1.085,0.645 -1.085,0.645" style="fill:rgb(255,200,0);fill-rule:nonzero;"/>
        </g>
        <g transform="matrix(1,0,0,1,312.591,130.962)">
            <path d="M0,0.153C1.682,0.059 3.363,-0.048 5.045,-0.145C6.692,-0.24 8.339,-0.348 9.985,-0.462C11.688,-0.579 13.404,-0.734 15.111,-0.678C15.143,-0.677 15.15,-0.629 15.117,-0.622C13.527,-0.262 11.888,-0.117 10.268,0.036C8.589,0.195 6.908,0.328 5.227,0.453C3.58,0.576 1.931,0.666 0.281,0.744C-1.415,0.824 -3.166,0.887 -4.86,0.732C-4.927,0.725 -4.948,0.619 -4.873,0.606C-3.275,0.339 -1.616,0.243 0,0.153" style="fill:rgb(26,46,53);fill-rule:nonzero;"/>
        </g>
        <g opacity="0.1">
            <g transform="matrix(-0.175401,0.984497,0.984497,0.175401,327.118,125.833)">
                <path d="M-26.348,-9.338L13.041,-9.338L15.61,-20.681C15.61,-20.681 -14.536,-20.682 -22.519,-19.763C-30.352,-18.87 -33.467,-14.484 -26.348,-9.338" style="fill-rule:nonzero;"/>
            </g>
        </g>
        <g transform="matrix(1,0,0,1,222.23,107.484)">
            <path d="M0,9.336C-0.152,9.522 55.292,38.597 56.237,38.672C56.914,38.723 62.666,35.22 68.521,29.296C72.93,24.834 96.741,8.935 100.167,2.017C104.431,-6.589 100.461,-15.829 93.409,-17.952C55.42,-29.387 6.684,1.139 0,9.336" style="fill:rgb(255,200,0);fill-rule:nonzero;"/>
        </g>
        <g transform="matrix(1,0,0,1,316.633,87.1782)">
            <path d="M0,22.404C-2.596,20.204 -5.088,10.045 -2.68,5.335C-2.513,5.014 -0.059,3.958 3.558,1.981C5.748,0.773 8.158,-0.624 10.265,-2.057C10.696,-2.354 16.044,13.342 16.044,13.342C16.044,13.342 10.743,15.048 7.085,17.569C6.782,17.783 6.517,18.008 6.282,18.248C6.246,18.28 6.206,18.324 6.152,18.365C4.692,19.75 2.778,24.758 0,22.404" style="fill:rgb(195,99,88);fill-rule:nonzero;"/>
        </g>
        <g transform="matrix(0.791256,-0.611484,-0.611484,-0.791256,334.916,95.56)">
            <path d="M-4.807,-2.553C-4.807,-2.553 -9.943,-0.7 -14.361,-0.438C-12.993,6.946 -8.564,11.247 -4.807,13.645C-3.186,13.435 -1.535,13.262 0.041,13.162C0.566,13.132 -4.807,-2.553 -4.807,-2.553" style="fill:rgb(26,46,53);fill-rule:nonzero;"/>
        </g>
        <g transform="matrix(-0.968439,0.249249,0.249249,0.968439,347.926,99.3523)">
            <path d="M8.874,-32.976C14.145,-30.269 23.807,-16.718 23.619,-11.283C23.346,-3.405 17.045,3.813 8.874,2.146C0.952,0.531 -11.329,-17.351 -10.573,-22.892C-9.459,-31.055 1.087,-36.973 8.874,-32.976" style="fill:rgb(195,99,88);fill-rule:nonzero;"/>
        </g>
        <g transform="matrix(-0.698096,-0.716004,-0.716004,0.698096,337.375,88.2174)">
            <path d="M-1.036,-2.959C-1.011,-2.995 -0.976,-2.875 -0.995,-2.834C-1.462,-1.815 -1.827,-0.568 -1.036,0.168C-1.011,0.191 -1.036,0.242 -1.069,0.222C-2.142,-0.419 -1.642,-2.068 -1.036,-2.959" style="fill:rgb(26,46,53);fill-rule:nonzero;"/>
        </g>
        <g transform="matrix(1,0,0,1,339.75,88.5686)">
            <path d="M0,-3.143C-1.608,-3.97 -3.145,-0.694 -1.655,0.073C-0.19,0.827 1.348,-2.449 0,-3.143" style="fill:rgb(26,46,53);fill-rule:nonzero;"/>
        </g>
        <g transform="matrix(-0.999175,-0.0406195,-0.0406195,0.999175,344.731,92.4997)">
            <path d="M-1.086,-3.185C-1.111,-3.221 -1.147,-3.102 -1.127,-3.061C-0.659,-2.041 -0.297,-0.795 -1.086,-0.058C-1.111,-0.035 -1.086,0.016 -1.054,-0.004C0.019,-0.644 -0.48,-2.295 -1.086,-3.185" style="fill:rgb(26,46,53);fill-rule:nonzero;"/>
        </g>
        <g transform="matrix(1,0,0,1,347.349,92.1637)">
            <path d="M0,-3.437C1.69,-2.795 0.282,0.538 -1.284,-0.056C-2.825,-0.642 -1.417,-3.975 0,-3.437" style="fill:rgb(26,46,53);fill-rule:nonzero;"/>
        </g>
        <g transform="matrix(1,0,0,1,339.193,83.1882)">
            <path d="M0,0.195C0.409,0.497 0.836,0.707 1.271,0.964C1.762,1.254 2.124,1.535 2.718,1.501C3.036,1.483 3.343,1.129 3.355,0.818C3.381,0.093 2.868,-0.411 2.291,-0.784C1.665,-1.189 1.079,-1.34 0.34,-1.259C-0.377,-1.18 -0.539,-0.203 0,0.195" style="fill:rgb(26,46,53);fill-rule:nonzero;"/>
        </g>
        <g transform="matrix(1,0,0,1,349.39,84.8225)">
            <path d="M0,2.849C-0.419,2.562 -0.758,2.227 -1.144,1.9C-1.578,1.531 -1.963,1.282 -2.125,0.71C-2.213,0.403 -1.979,-0.003 -1.689,-0.116C-1.013,-0.379 -0.368,-0.059 0.173,0.363C0.761,0.822 1.096,1.326 1.262,2.051C1.423,2.754 0.553,3.228 0,2.849" style="fill:rgb(26,46,53);fill-rule:nonzero;"/>
        </g>
        <g transform="matrix(1,0,0,1,334.881,97.1498)">
            <path d="M0,-1.525C0.132,-1.173 0.221,-0.732 0.574,-0.529C0.914,-0.333 1.402,-0.299 1.785,-0.272C1.823,-0.27 1.84,-0.22 1.805,-0.199C1.358,0.066 0.69,0.05 0.258,-0.253C-0.164,-0.549 -0.205,-1.052 -0.119,-1.525C-0.107,-1.591 -0.019,-1.576 0,-1.525" style="fill:rgb(26,46,53);fill-rule:nonzero;"/>
        </g>
        <g transform="matrix(1,0,0,1,337.374,87.5457)">
            <path d="M0,5.541C0.155,6.688 0.764,7.562 1.585,8.161C1.95,8.431 2.368,8.644 2.802,8.801C2.884,8.837 2.97,8.867 3.052,8.885C3.13,8.911 3.201,8.934 3.29,8.955C3.417,8.994 3.528,8.926 3.6,8.824L3.604,8.816C3.62,8.778 3.634,8.748 3.643,8.708L3.646,8.7L3.686,8.61C4.074,7.839 4.556,6.615 4.556,6.615C4.774,6.892 5.923,8.23 6.091,7.811C7.475,4.337 9.014,0.473 9.657,-3.276C9.685,-3.399 9.503,-3.453 9.46,-3.337C7.998,-0.051 7.124,3.47 5.708,6.795C5.325,6.4 4.721,5.718 4.309,5.534C4.183,5.514 3.42,7.916 3.218,8.249C3.218,8.249 3.211,8.264 3.194,8.283C1.802,7.835 0.998,6.974 0.138,5.494C0.089,5.401 -0.023,5.432 0,5.541" style="fill:rgb(26,46,53);fill-rule:nonzero;"/>
        </g>
        <g transform="matrix(1,0,0,1,339.9,93.6722)">
            <path d="M0,2.062C0,2.062 -1.131,2.671 -2.238,2.564C-2.647,2.525 -3.046,2.398 -3.391,2.108C-4.102,1.515 -3.773,0.761 -3.326,0.195C-2.96,-0.272 -2.506,-0.609 -2.506,-0.609C-2.506,-0.609 -1.842,1.054 0,2.062" style="fill:rgb(26,46,53);fill-rule:nonzero;"/>
        </g>
        <g transform="matrix(1,0,0,1,337.662,93.8672)">
            <path d="M0,2.369C-0.408,2.33 -0.808,2.203 -1.153,1.913C-1.863,1.32 -1.535,0.566 -1.087,0C-0.261,0.497 0.323,1.49 0,2.369" style="fill:rgb(255,156,191);fill-rule:nonzero;"/>
        </g>
        <g transform="matrix(1,0,0,1,324.719,65.7674)">
            <path d="M0,15.528C1.745,17.256 4.754,15.712 6.003,14.718C7.252,13.725 10.32,6.04 12.404,4.669C14.487,3.298 17.237,3.426 18.656,4.878C20.077,6.331 21.027,9.795 22.347,10.38C23.666,10.966 25.484,8.417 26.358,8.904C28.282,9.978 27.664,15.857 26.833,18.159C26.833,18.159 31.932,9.16 23.18,3.191C14.642,-2.631 8.303,1.924 6.007,4.195C1.609,8.546 0,15.528 0,15.528" style="fill:rgb(26,46,53);fill-rule:nonzero;"/>
        </g>
        <g transform="matrix(-0.616304,-0.787508,-0.787508,0.616304,323.534,80.615)">
            <path d="M-5.965,-2.859C-5.965,-2.859 -0.341,-6.039 1.256,-3.812C2.855,-1.585 -2.967,4.138 -5.965,3.87C-8.962,3.6 -8.767,0.82 -8.767,0.82L-5.965,-2.859Z" style="fill:rgb(195,99,88);fill-rule:nonzero;"/>
        </g>
        <g transform="matrix(1,0,0,1,325.556,87.5441)">
            <path d="M0,-7.936C-0.039,-7.96 -0.075,-7.907 -0.047,-7.875C1.368,-6.278 1.485,-4.173 1.293,-2.146C1.092,-3.063 0.553,-3.778 -0.637,-3.587C-0.699,-3.577 -0.691,-3.482 -0.636,-3.468C0.167,-3.263 0.628,-2.878 0.83,-2.054C0.973,-1.47 0.952,-0.832 0.964,-0.233C0.969,-0.034 1.297,0.024 1.327,-0.189C1.329,-0.204 1.331,-0.221 1.333,-0.237C2.498,-2.473 2.312,-6.505 0,-7.936" style="fill:rgb(26,46,53);fill-rule:nonzero;"/>
        </g>
        <g transform="matrix(1,0,0,1,321.448,103.603)">
            <path d="M0,-28.412C0,-28.412 0.326,-18.428 0.608,-17.139C0.89,-15.851 3.101,-13.193 3.101,-13.193C3.101,-13.193 3.945,-2.149 4.262,-1.771C4.58,-1.392 6.531,0 6.765,-0.404C6.999,-0.809 6.258,-12.852 6.258,-12.852L13.511,-24.511L11.484,-26.439L4.622,-14.84C4.622,-14.84 3.049,-17.653 2.891,-18.23C2.734,-18.807 2.249,-28.334 2.249,-28.334L0,-28.412Z" style="fill:rgb(26,46,53);fill-rule:nonzero;"/>
        </g>
        <g transform="matrix(1,0,0,1,321.14,80.4093)">
            <path d="M0,-11.663L-2.713,-9.302L-1.22,-7.179L-2.496,-4.03C-2.496,-4.03 1.277,-0.979 2.691,-0.49C4.106,0 14.949,-0.431 14.949,-0.431L0,-11.663Z" style="fill:rgb(43,69,78);fill-rule:nonzero;"/>
        </g>
        <g transform="matrix(1,0,0,1,322.966,78.1467)">
            <path d="M0,-6.943L-1.478,-6.335L-0.019,-5.041L-1.674,-2.825L1.924,-0.526L8.486,0L0,-6.943Z" style="fill:rgb(26,46,53);fill-rule:nonzero;"/>
        </g>
        <g transform="matrix(1,0,0,1,335.956,63.4141)">
            <path d="M0,17.63C4.177,18.091 13.58,19.138 13.684,19.071C13.788,19.003 17.825,20.742 18.044,20.73C18.263,20.719 23.918,17.602 23.918,17.602C23.918,17.602 21.753,8.22 17.137,4.048C12.521,-0.125 0.601,-3.112 -2.311,-2.592C-5.223,-2.072 -17.636,3.881 -17.671,4.244C-17.706,4.606 -2.888,17.311 0,17.63" style="fill:rgb(255,200,0);fill-rule:nonzero;"/>
        </g>
        <g opacity="0.1">
            <g transform="matrix(1,0,0,1,326.503,65.8304)">
                <path d="M0,-1.445L3.932,-3.079C3.932,-3.079 8.775,-1.777 9.607,-1.44C10.439,-1.104 13.101,1.634 13.101,1.634C13.101,1.634 8.941,-0.734 8.24,-0.828C7.539,-0.923 0,-1.445 0,-1.445" style="fill-rule:nonzero;"/>
            </g>
        </g>
        <g opacity="0.1">
            <g transform="matrix(-0.690416,0.723413,0.723413,0.690416,362.202,71.4104)">
                <path d="M10.282,-24.026C10.282,-24.026 5.855,-11.899 5.652,-10.636C5.061,-6.965 10.282,4.4 10.282,4.4C10.282,4.4 6.384,-8.93 6.826,-10.534C7.268,-12.137 10.282,-24.026 10.282,-24.026" style="fill-rule:nonzero;"/>
            </g>
        </g>
        <g opacity="0.1">
            <g transform="matrix(-0.475908,0.879495,0.879495,0.475908,343.629,66.535)">
                <path d="M10.915,-18.316C10.915,-18.316 7.049,-7.729 6.872,-6.625C6.356,-3.419 10.914,6.504 10.914,6.504C10.914,6.504 7.512,-5.135 7.897,-6.535C8.282,-7.935 10.915,-18.316 10.915,-18.316" style="fill-rule:nonzero;"/>
            </g>
        </g>
        <g opacity="0.1">
            <g transform="matrix(-0.772379,0.635162,0.635162,0.772379,357.191,78.4671)">
                <path d="M5.918,-16.514C5.918,-16.514 3.465,-8.478 3.407,-7.543C3.259,-5.14 5.918,2.121 5.918,2.121C5.918,2.121 5.196,-6.562 5.209,-7.771C5.22,-8.861 5.918,-16.514 5.918,-16.514" style="fill-rule:nonzero;"/>
            </g>
        </g>
        <g transform="matrix(0.934764,-0.35527,-0.35527,-0.934764,339.258,79.6014)">
            <path d="M-1.226,-0.107C-1.085,-0.203 1.223,3.606 1.242,3.826C1.26,4.047 -0.907,6.841 -1.226,6.891C-1.52,6.935 -2.291,3.453 -2.447,2.231C-2.495,1.851 -1.636,0.172 -1.226,-0.107" style="fill:rgb(26,46,53);fill-rule:nonzero;"/>
        </g>
        <g transform="matrix(0.813211,-0.581969,-0.581969,-0.813211,335.092,74.9417)">
            <path d="M-2.176,-0.577C-1.835,-0.743 -0.302,3.688 -0.48,4.163C-0.933,5.364 -1.99,6.962 -2.176,6.797C-2.362,6.631 -3.281,2.015 -3.193,1.705C-3.102,1.39 -2.375,-0.479 -2.176,-0.577" style="fill:rgb(26,46,53);fill-rule:nonzero;"/>
        </g>
        <g transform="matrix(1,0,0,1,326.95,72.9918)">
            <path d="M0,-2.77C-0.674,-3.101 -2.954,-3.671 -2.972,-3.477C-2.99,-3.283 1.168,0.901 1.36,0.766C1.551,0.631 0.461,-2.543 0,-2.77" style="fill:rgb(26,46,53);fill-rule:nonzero;"/>
        </g>
        <g transform="matrix(1,0,0,1,244.303,101.921)">
            <path d="M0,5.487C1.322,5.514 48.358,17.251 65.252,6.886C76.347,0.079 56.769,-14.431 56.769,-14.431L60.136,-15.463C60.136,-15.463 70.492,-10.441 72.648,-0.748C77.472,20.95 14.841,15.889 -6.954,9.102L0,5.487Z" style="fill:rgb(26,46,53);fill-rule:nonzero;"/>
        </g>
        <g transform="matrix(1,0,0,1,236.745,71.6412)">
            <path d="M0,40.646C3.8,41.525 14.019,30.517 29.888,25.266C45.757,20.014 68.261,16.409 68.49,14.88C68.719,13.35 55.72,2.923 52.02,1.446C48.319,-0.03 33.977,3.066 33.977,3.066C33.977,3.066 27.755,-0.879 24.502,-0.397C21.249,0.086 -7.917,9.756 -8.672,10.693C-9.428,11.631 -17.065,20.023 -17.186,22.12C-17.308,24.216 -15.414,37.079 0,40.646" style="fill:rgb(43,69,78);fill-rule:nonzero;"/>
        </g>
        <g transform="matrix(1,0,0,1,297.857,190.196)">
            <path d="M0,-85.988C-4.107,-69.889 -8.688,-31.304 -4.088,-22.38C1.195,-12.132 28.146,6.45 37.339,11.21C41.167,13.192 55.773,-12.886 54.944,-17.419C54.453,-20.102 21.105,-37.607 20.917,-39.293C20.738,-40.883 16.175,-61.051 13.194,-81.358C10.744,-98.043 3.365,-99.18 0,-85.988" style="fill:rgb(195,99,88);fill-rule:nonzero;"/>
        </g>
        <g transform="matrix(1,0,0,1,346.98,221.064)">
            <path d="M0,-51.173C0,-51.173 12.458,-47.085 20.479,-44.028C24.954,-42.323 32.365,-38.715 35.079,-35.959C39.139,-31.835 53.487,-11.998 48.753,-8.416C44.466,-5.173 34.304,-23.781 34.304,-23.781C34.304,-23.781 46.219,-5.911 40.34,-2.955C34.461,0 25.775,-22.551 25.775,-22.551C25.775,-22.551 37.605,-3.915 31.061,-1.826C26.115,-0.248 17.097,-20.229 17.097,-20.229C17.097,-20.229 27.154,-4.141 22.138,-2.298C16.596,-0.262 7.114,-18.184 7.114,-18.184C-6.425,-15.647 -13.909,-19.977 -18.867,-23.691C-20.067,-24.59 0,-51.173 0,-51.173" style="fill:rgb(195,99,88);fill-rule:nonzero;"/>
        </g>
        <g transform="matrix(1,0,0,1,377.559,213.269)">
            <path d="M0,-22.43C1.475,-20.382 2.983,-18.318 4.271,-16.145C5.56,-13.973 6.773,-11.754 7.853,-9.471C10.503,-3.872 11.287,0.049 11.212,-0.188C9.444,-5.79 4.952,-13.64 3.663,-15.813C2.377,-17.981 1.2,-20.214 -0.085,-22.384C-0.117,-22.439 -0.035,-22.479 0,-22.43" style="fill:rgb(26,46,53);fill-rule:nonzero;"/>
        </g>
        <g transform="matrix(1,0,0,1,369.629,212.01)">
            <path d="M0,-16.662C1.771,-13.965 3.628,-11.352 5.28,-8.575C6.924,-5.813 8.242,-3.048 9.692,-0.179C9.804,0.041 9.648,0.029 9.527,-0.188C7.964,-2.997 6.303,-5.472 4.707,-8.262C3.116,-11.042 1.622,-13.905 -0.068,-16.625C-0.094,-16.667 -0.027,-16.703 0,-16.662" style="fill:rgb(26,46,53);fill-rule:nonzero;"/>
        </g>
        <g transform="matrix(-0.882098,0.471066,0.471066,0.882098,371.846,208.685)">
            <path d="M3.537,-14.007C2.839,-9.119 3.045,-4.108 3.365,0.802C3.381,1.047 3.539,0.919 3.537,0.668C3.502,-4.256 3.439,-8.119 3.707,-13.984C3.712,-14.075 3.552,-14.111 3.537,-14.007" style="fill:rgb(26,46,53);fill-rule:nonzero;"/>
        </g>
        <g transform="matrix(1,0,0,1,395.25,134.881)">
            <path d="M0,70.085C-2.708,63.514 -6.901,57.663 -11.593,52.379C-12.379,51.552 -13.161,50.626 -14.076,49.933C-22.998,44.435 -33.446,40.87 -43.178,36.976C-47.235,34.69 -51.271,32.372 -55.294,30.03C-59.302,27.685 -63.315,25.346 -67.248,22.871C-70.408,20.783 -73.804,18.959 -76.575,16.34C-77.081,15.576 -77.13,14.6 -77.358,13.737C-78.252,9.172 -78.995,4.592 -79.68,0C-78.504,5.306 -77.868,10.866 -76.16,15.995C-73.388,18.477 -69.993,20.235 -66.848,22.218C-58.998,26.912 -50.532,31.73 -42.789,36.055C-38.359,37.761 -33.962,39.533 -29.593,41.384C-23.947,43.968 -17.864,46.078 -12.946,49.989C-7.471,55.803 -2.768,62.567 0,70.085" style="fill:rgb(26,46,53);fill-rule:nonzero;"/>
        </g>
        <g transform="matrix(1,0,0,1,293.031,197.374)">
            <path d="M0,-61.978C-0.441,-52.295 -1.174,-42.417 0.307,-32.812C0.752,-29.542 2.733,-27.009 4.937,-24.711C9.393,-20.031 14.518,-15.975 19.603,-11.93C24.71,-7.895 29.953,-4.025 35.082,0C30.291,-3.322 23.701,-7.853 19.134,-11.32C13.921,-15.264 8.782,-19.322 4.209,-24.027C1.919,-26.428 -0.174,-29.283 -0.586,-32.644C-2.018,-42.381 -1.021,-52.266 0,-61.978" style="fill:rgb(26,46,53);fill-rule:nonzero;"/>
        </g>
        <g transform="matrix(0.99782,-0.0659967,-0.0659967,-0.99782,292.367,137.614)">
            <path d="M-1.557,0.939L25.383,0.939C25.383,0.939 23.663,22.034 20.154,35.241C16.787,47.914 10.726,46.433 7.748,37.924C5.091,30.335 -1.557,0.939 -1.557,0.939" style="fill:rgb(255,200,0);fill-rule:nonzero;"/>
        </g>
        <g transform="matrix(1,0,0,1,312.846,135.003)">
            <path d="M0,-25.464C2.259,-17.137 3.868,-8.58 4.787,0C2.527,-8.329 0.919,-16.884 0,-25.464" style="fill:rgb(26,46,53);fill-rule:nonzero;"/>
        </g>
        <g transform="matrix(0.992443,0.122704,0.122704,-0.992443,289.005,136.401)">
            <path d="M1.779,-0.162C1.569,4.678 1.64,9.513 1.779,14.351C1.943,19.176 2.421,23.971 1.779,28.786C3.218,24.122 2.928,19.148 2.776,14.318C2.596,9.481 2.331,4.652 1.779,-0.162" style="fill:rgb(26,46,53);fill-rule:nonzero;"/>
        </g>
        <g transform="matrix(1,0,0,1,293.016,115.838)">
            <path d="M0,-4.558C0.901,-3.243 1.272,-1.583 1.1,0C0.588,-1.501 0.265,-2.986 0,-4.558" style="fill:rgb(26,46,53);fill-rule:nonzero;"/>
        </g>
        <g transform="matrix(1,0,0,1,299.192,129.799)">
            <path d="M0,0.357C1.68,0.23 3.358,0.089 5.038,-0.042C6.683,-0.17 8.327,-0.311 9.97,-0.457C11.671,-0.608 13.383,-0.798 15.092,-0.776C15.124,-0.775 15.131,-0.727 15.099,-0.719C13.516,-0.328 11.881,-0.15 10.263,0.035C8.588,0.227 6.91,0.394 5.232,0.553C3.588,0.708 1.941,0.832 0.293,0.942C-1.401,1.056 -3.151,1.155 -4.847,1.033C-4.915,1.028 -4.938,0.921 -4.863,0.907C-3.271,0.608 -1.614,0.479 0,0.357" style="fill:rgb(26,46,53);fill-rule:nonzero;"/>
        </g>
    </g>
    <g id="Lines">
        <g transform="matrix(1,0,0,1,324.761,299.409)">
            <path d="M0,-13.146C14.129,-9.427 28.164,-5.022 41.888,0C27.755,-3.72 13.722,-8.125 0,-13.146" style="fill:rgb(26,46,53);fill-rule:nonzero;"/>
        </g>
        <g transform="matrix(1,0,0,1,175.842,151.97)">
            <path d="M0,-13.146C14.129,-9.427 28.164,-5.022 41.888,0C27.755,-3.72 13.722,-8.125 0,-13.146" style="fill:rgb(26,46,53);fill-rule:nonzero;"/>
        </g>
        <g transform="matrix(1,0,0,1,62.4828,259.167)">
            <path d="M0,-12.377C13.314,-8.913 26.532,-4.766 39.44,0C26.122,-3.464 12.907,-7.612 0,-12.377" style="fill:rgb(26,46,53);fill-rule:nonzero;"/>
        </g>
        <g transform="matrix(1,0,0,1,150.712,153.436)">
            <path d="M0,-12.354C13.289,-8.898 26.482,-4.758 39.366,0C26.073,-3.456 12.882,-7.596 0,-12.354" style="fill:rgb(26,46,53);fill-rule:nonzero;"/>
        </g>
        <g transform="matrix(1,0,0,1,49.6375,245.142)">
            <path d="M0,-27.214C28.057,-19.105 59.03,-9.367 86.713,0C58.636,-8.132 27.665,-17.835 0,-27.214" style="fill:rgb(26,46,53);fill-rule:nonzero;"/>
        </g>
        <g transform="matrix(1,0,0,1,242.955,413.693)">
            <path d="M0,-18.009C19.283,-12.662 38.496,-6.632 57.382,0C38.092,-5.35 18.882,-11.379 0,-18.009" style="fill:rgb(26,46,53);fill-rule:nonzero;"/>
        </g>
    </g>
</svg>
